<svg fill="#000000" xmlns="http://www.w3.org/2000/svg"  viewBox="0 0 24 24" width="24px" height="24px"><path d="M 7 1 L 7 3 L 9 3 L 9 1 L 7 1 z M 11 1 L 11 3 L 13 3 L 13 1 L 11 1 z M 15 1 L 15 3 L 17 3 L 17 1 L 15 1 z M 7 5 C 5.895 5 5 5.895 5 7 L 5 17 C 5 18.105 5.895 19 7 19 L 17 19 C 18.105 19 19 18.105 19 17 L 19 7 C 19 5.895 18.105 5 17 5 L 7 5 z M 1 7 L 1 9 L 3 9 L 3 7 L 1 7 z M 8 7 C 8.552 7 9 7.448 9 8 C 9 8.552 8.552 9 8 9 C 7.448 9 7 8.552 7 8 C 7 7.448 7.448 7 8 7 z M 21 7 L 21 9 L 23 9 L 23 7 L 21 7 z M 1 11 L 1 13 L 3 13 L 3 11 L 1 11 z M 21 11 L 21 13 L 23 13 L 23 11 L 21 11 z M 1 15 L 1 17 L 3 17 L 3 15 L 1 15 z M 16 15 C 16.552 15 17 15.448 17 16 C 17 16.552 16.552 17 16 17 C 15.448 17 15 16.552 15 16 C 15 15.448 15.448 15 16 15 z M 21 15 L 21 17 L 23 17 L 23 15 L 21 15 z M 7 21 L 7 23 L 9 23 L 9 21 L 7 21 z M 11 21 L 11 23 L 13 23 L 13 21 L 11 21 z M 15 21 L 15 23 L 17 23 L 17 21 L 15 21 z"/></svg>