<svg xmlns="http://www.w3.org/2000/svg" xmlns:xlink="http://www.w3.org/1999/xlink" viewBox="0 0 48 48" width="48px" height="48px"><defs><linearGradient id="zcewejpZLwxvJM9HBAFFgb" x1="21.5" x2="21.5" y1="7" y2="41" gradientTransform="matrix(1.03 0 0 1 1.848 0)" gradientUnits="userSpaceOnUse"><stop offset="0" stop-color="#d254eb"/><stop offset="1" stop-color="#9316d1"/></linearGradient><linearGradient id="zcewejpZLwxvJM9HBAFFga" x1="5" x2="38" y1="24" y2="24" gradientTransform="matrix(1.03 0 0 1 1.848 0)" gradientUnits="userSpaceOnUse"><stop offset="0" stop-color="#af76eb" stop-opacity="0"/><stop offset=".434" stop-color="#ad74e9" stop-opacity=".016"/><stop offset=".59" stop-color="#a56de3" stop-opacity=".072"/><stop offset=".701" stop-color="#9862d7" stop-opacity=".171"/><stop offset=".791" stop-color="#8451c7" stop-opacity=".312"/><stop offset=".868" stop-color="#6b3cb2" stop-opacity=".495"/><stop offset=".935" stop-color="#4d2199" stop-opacity=".716"/><stop offset=".996" stop-color="#29037b" stop-opacity=".978"/><stop offset="1" stop-color="#260078"/></linearGradient><linearGradient id="zcewejpZLwxvJM9HBAFFgc" x1="-721" x2="-688" y1="-452" y2="-452" gradientTransform="matrix(1.03 0 0 1 749.848 476)" xlink:href="#zcewejpZLwxvJM9HBAFFga"/><linearGradient id="zcewejpZLwxvJM9HBAFFgd" x1="-259" x2="-226" y1="-1200" y2="-1200" gradientTransform="matrix(1.03 0 0 1 273.848 1224)" xlink:href="#zcewejpZLwxvJM9HBAFFga"/><linearGradient id="zcewejpZLwxvJM9HBAFFge" x1="467" x2="500" y1="-724" y2="-724" gradientTransform="matrix(1.03 0 0 1 -474.152 748)" xlink:href="#zcewejpZLwxvJM9HBAFFga"/><linearGradient id="zcewejpZLwxvJM9HBAFFgf" x1="24" x2="24" y1="10" y2="38" gradientUnits="userSpaceOnUse"><stop offset="0" stop-color="#fff"/><stop offset=".325" stop-color="#fbfbfc"/><stop offset=".662" stop-color="#eeeef4"/><stop offset="1" stop-color="#dadae6"/></linearGradient></defs><g data-name="wheel of dharma"><rect width="34" height="34" x="7" y="7" fill="url(#zcewejpZLwxvJM9HBAFFgb)" rx="3"/><g opacity=".6"><rect width="34" height="34" x="7" y="7" fill="url(#zcewejpZLwxvJM9HBAFFga)" rx="3"/><rect width="34" height="34" x="7" y="7" fill="url(#zcewejpZLwxvJM9HBAFFgc)" rx="3" transform="rotate(-90 24 24)"/><rect width="34" height="34" x="7" y="7" fill="url(#zcewejpZLwxvJM9HBAFFgd)" rx="3" transform="rotate(180 24 24)"/><rect width="34" height="34" x="7" y="7" fill="url(#zcewejpZLwxvJM9HBAFFge)" rx="3" transform="rotate(90 24 24)"/></g><path fill="url(#zcewejpZLwxvJM9HBAFFgf)" d="M37,23H35.949a11.941,11.941,0,0,0-2.794-6.741l.744-.744A1,1,0,1,0,32.485,14.1l-.744.744A11.941,11.941,0,0,0,25,12.051V11a1,1,0,0,0-2,0v1.051a11.941,11.941,0,0,0-6.741,2.794l-.744-.744A1,1,0,1,0,14.1,15.515l.744.744A11.941,11.941,0,0,0,12.051,23H11a1,1,0,0,0,0,2h1.051a11.941,11.941,0,0,0,2.794,6.741l-.744.744A1,1,0,1,0,15.515,33.9l.744-.744A11.941,11.941,0,0,0,23,35.949V37a1,1,0,0,0,2,0V35.949a11.941,11.941,0,0,0,6.741-2.794l.744.744A1,1,0,0,0,33.9,32.485l-.744-.744A11.941,11.941,0,0,0,35.949,25H37a1,1,0,0,0,0-2Zm-3.051,0H27.858a3.915,3.915,0,0,0-.425-1.019l4.305-4.305A9.945,9.945,0,0,1,33.949,23ZM24,26a2,2,0,1,1,2-2A2,2,0,0,1,24,26Zm6.324-9.738-4.305,4.305A3.915,3.915,0,0,0,25,20.142V14.051A9.945,9.945,0,0,1,30.324,16.262ZM23,14.051v6.091a3.915,3.915,0,0,0-1.019.425l-4.305-4.3A9.945,9.945,0,0,1,23,14.051Zm-6.738,3.625,4.305,4.305A3.915,3.915,0,0,0,20.142,23H14.051A9.945,9.945,0,0,1,16.262,17.676ZM14.051,25h6.091a3.915,3.915,0,0,0,.425,1.019l-4.3,4.305A9.945,9.945,0,0,1,14.051,25Zm3.625,6.738,4.305-4.3A3.915,3.915,0,0,0,23,27.858v6.091A9.945,9.945,0,0,1,17.676,31.738ZM25,33.949V27.858a3.915,3.915,0,0,0,1.019-.425l4.305,4.305A9.945,9.945,0,0,1,25,33.949Zm6.738-3.625-4.3-4.305A3.915,3.915,0,0,0,27.858,25h6.091A9.945,9.945,0,0,1,31.738,30.324Z"/></g></svg>