<svg xmlns="http://www.w3.org/2000/svg"  viewBox="0 0 48 48" width="48px" height="48px"><radialGradient id="Ot7qo0NghMgBD7Cr2o942a" cx="24.371" cy="44.5" r="22.134" gradientUnits="userSpaceOnUse"><stop offset="0" stop-color="#0ba852"/><stop offset=".999" stop-color="#0f7211"/></radialGradient><path fill="url(#Ot7qo0NghMgBD7Cr2o942a)" d="M43,46c0,0,0.054-9.133-6.089-10.749C33.774,34.426,24.018,32,24.001,32	c-0.017,0-9.774,2.426-12.91,3.251C4.947,36.867,5,46,5,46H43z"/><radialGradient id="Ot7qo0NghMgBD7Cr2o942b" cx="-1073.429" cy="-223.475" r="4.366" gradientTransform="matrix(-.847 .5316 -.6454 -1.0285 -1042.889 370.878)" gradientUnits="userSpaceOnUse"><stop offset="0" stop-color="#aa8765"/><stop offset=".089" stop-color="#a17c57"/><stop offset=".27" stop-color="#926941"/><stop offset=".385" stop-color="#8c6239"/><stop offset=".516" stop-color="#875d34"/><stop offset=".68" stop-color="#774e27"/><stop offset=".848" stop-color="#603813"/></radialGradient><path fill="url(#Ot7qo0NghMgBD7Cr2o942b)" d="M10.792,22.907c0,0,1.118,3.736-0.547,5.15c-0.95,0.874-0.177,1.483,0.278,1.499 c0.559,0.019,0.784-0.013,1.691-0.305c-0.276,0.824-0.648,1.204-1.028,1.52c-0.664,0.551-0.065,0.926,0.544,0.839 c0.61-0.086,1.494-0.539,1.696-0.731c-0.033,0.463-0.216,0.783-0.377,1.035s0.113,0.737,0.704,0.522 c0.343-0.125,0.721-0.397,1.197-0.906c0.029,0.29,0.266,0.818,0.532,0.808c0.708-0.027,1.329-0.813,1.562-1.105 c-0.837-1.289-5.568-8.587-5.568-8.587L10.792,22.907z"/><radialGradient id="Ot7qo0NghMgBD7Cr2o942c" cx="753.184" cy="459.412" r="4.366" gradientTransform="matrix(.8731 .4875 .592 -1.0601 -892.095 149.784)" gradientUnits="userSpaceOnUse"><stop offset="0" stop-color="#aa8765"/><stop offset=".089" stop-color="#a17c57"/><stop offset=".27" stop-color="#926941"/><stop offset=".385" stop-color="#8c6239"/><stop offset=".516" stop-color="#875d34"/><stop offset=".68" stop-color="#774e27"/><stop offset=".848" stop-color="#603813"/></radialGradient><path fill="url(#Ot7qo0NghMgBD7Cr2o942c)" d="M36.857,22.803c0,0-0.926,3.788,0.81,5.115c1.508,1.153,0.252,1.472-0.201,1.511 c-0.557,0.048-0.783,0.027-1.705-0.218c0.318,0.809,0.708,1.17,1.105,1.465c0.691,0.516,0.113,0.921-0.501,0.866 c-0.613-0.055-1.52-0.462-1.731-0.643c0.056,0.46,0.256,0.771,0.429,1.014s-0.075,0.742-0.676,0.557 c-0.349-0.107-0.74-0.359-1.242-0.843c-0.014,0.291-0.224,0.831-0.49,0.834c-0.708,0.01-1.369-0.744-1.616-1.023 c0.77-1.33,5.122-8.86,5.122-8.86L36.857,22.803z"/><radialGradient id="Ot7qo0NghMgBD7Cr2o942d" cx="58.337" cy="22.554" r="1.844" gradientTransform="matrix(.9227 .1748 -.4139 2.1652 -8.886 -36.592)" gradientUnits="userSpaceOnUse"><stop offset="0" stop-color="#ffe16e"/><stop offset=".461" stop-color="#ffd226"/><stop offset=".741" stop-color="#f8c21d"/><stop offset=".999" stop-color="#f0af13"/></radialGradient><path fill="url(#Ot7qo0NghMgBD7Cr2o942d)" d="M35.01,19.762c0.789-0.24,2.696-0.087,2.762,2.116c0.062,2.083-0.482,3.033-1.206,3.927 c-0.811,1.003-2.27,0.996-2.15,0.199C34.537,25.207,35.01,19.762,35.01,19.762z"/><radialGradient id="Ot7qo0NghMgBD7Cr2o942e" cx="-561.29" cy="22.554" r="1.844" gradientTransform="matrix(-.9179 .1748 .4118 2.1652 -512.558 71.697)" gradientUnits="userSpaceOnUse"><stop offset="0" stop-color="#ffe16e"/><stop offset=".461" stop-color="#ffd226"/><stop offset=".741" stop-color="#f8c21d"/><stop offset=".999" stop-color="#f0af13"/></radialGradient><path fill="url(#Ot7qo0NghMgBD7Cr2o942e)" d="M12.535,19.762c-0.785-0.24-2.682-0.087-2.748,2.116c-0.062,2.083,0.48,3.033,1.199,3.927 c0.807,1.003,2.258,0.996,2.139,0.199C13.005,25.207,12.535,19.762,12.535,19.762z"/><radialGradient id="Ot7qo0NghMgBD7Cr2o942f" cx="94.778" cy="1116.206" r="14.45" fx="94.702" fy="1110.016" gradientTransform="matrix(.8804 0 0 1.0707 -59.543 -1174.804)" gradientUnits="userSpaceOnUse"><stop offset="0" stop-color="#ffe16e"/><stop offset=".629" stop-color="#ffd226"/><stop offset=".75" stop-color="#fdcd23"/><stop offset=".899" stop-color="#f6bd1b"/><stop offset=".999" stop-color="#f0af13"/></radialGradient><path fill="url(#Ot7qo0NghMgBD7Cr2o942f)" d="M36.446,19.894c0,2.859-0.646,5.533-1.771,7.82C32.484,32.169,28.478,36,23.9,36 c-4.579,0-8.585-3.831-10.775-8.286c-1.125-2.287-1.771-4.962-1.771-7.82c0-0.628,0.017-1.221,0.05-1.783 c0.192-3.236,0.922-5.466,2.056-7.529c2.25-4.096,6.086-5.946,10.44-5.946c4.331,0,8.149,1.821,10.404,5.88 C35.656,12.951,36.446,15.656,36.446,19.894z"/><g><radialGradient id="Ot7qo0NghMgBD7Cr2o942g" cx="-114.702" cy="-58.426" r="9.636" gradientTransform="matrix(-.0114 .9999 -1.2141 -.0139 -48.344 126.65)" gradientUnits="userSpaceOnUse"><stop offset="0" stop-color="#aa8765"/><stop offset=".145" stop-color="#a17c57"/><stop offset=".441" stop-color="#926941"/><stop offset=".629" stop-color="#8c6239"/><stop offset=".734" stop-color="#875d34"/><stop offset=".865" stop-color="#774e27"/><stop offset=".999" stop-color="#603813"/></radialGradient><path fill="url(#Ot7qo0NghMgBD7Cr2o942g)" d="M37.268,12.348c0.373-0.308,0.529-0.828,0.502-1.28c-0.16-2.655-1.974-5.615-4.877-6.309 c-0.156-0.037-0.313-0.084-0.472-0.138c0.393-0.833,0.151-1.635-1.089-1.565c-3.497,0.197-2.534-1.54-5.848-0.855 c-0.397,0.054-0.796,0.167-1.196,0.361c-2.532-1.409-4.859-0.145-6.797,0.96c-1.3,0.741-2.302,0.735-3.366,0.79 c-1.402,0.072-1.069,1.531-0.494,1.733c-1.62,0.745-2.973,2.591-3.256,3.273c-0.245,0.588,0.182,1.246,0.717,1.018 c-0.417,0.634-0.636,1.047-0.636,2.044c-0.831,4.027,0.056,9.697,2.065,12.515c-0.81-3.921-0.509-5.549,0.13-7.437 c3.103-9.137,7.826-5.423,8.208-5.144c1.651,1.209,4.397,1.177,5.904,0.18c0.262-0.173,5.055-4.636,8.394,4.574 c0.445,1.227,0.584,4.855,0.219,8.087C38.688,20.606,37.608,13.838,37.268,12.348z"/><radialGradient id="Ot7qo0NghMgBD7Cr2o942h" cx="23.721" cy="1292.717" r="11.327" gradientTransform="matrix(1 0 0 .8271 0 -1055.776)" gradientUnits="userSpaceOnUse"><stop offset="0" stop-color="#aa8765"/><stop offset=".145" stop-color="#a17c57"/><stop offset=".441" stop-color="#926941"/><stop offset=".629" stop-color="#8c6239"/><stop offset=".734" stop-color="#875d34"/><stop offset=".865" stop-color="#774e27"/><stop offset=".999" stop-color="#603813"/></radialGradient><path fill="url(#Ot7qo0NghMgBD7Cr2o942h)" d="M35.576,23.757c1.408-3.039,1.162-6.415,0.881-7.634c-1.118-4.86-4.7-6.804-6.658-7.315 c-1.523-0.397-2.673-0.186-3.402,0.559c-1.263,1.291-3.568,1.473-4.909-0.073c-0.876-1.01-2.106-0.672-3.159-0.365 c-1.939,0.567-5.954,2.795-6.95,7.169c-0.432,1.895-0.591,4.545,1.089,8.716c0.018,0.026,0.035,0.056,0.053,0.081 c-0.81-3.921-0.51-5.549,0.129-7.437c3.103-9.137,7.826-5.423,8.208-5.144c1.651,1.209,4.397,1.177,5.904,0.18 c0.262-0.173,5.055-4.636,8.394,4.574c0.445,1.227,0.703,3.579,0.338,6.811C35.52,23.844,35.55,23.795,35.576,23.757z"/><radialGradient id="Ot7qo0NghMgBD7Cr2o942i" cx="23.713" cy="1292.991" r="11.146" gradientTransform="matrix(1 0 0 .8271 0 -1055.726)" gradientUnits="userSpaceOnUse"><stop offset="0" stop-color="#9f7c59"/><stop offset=".081" stop-color="#9b7652"/><stop offset=".416" stop-color="#8c633c"/><stop offset=".629" stop-color="#865c34"/><stop offset=".744" stop-color="#81572f"/><stop offset=".886" stop-color="#714822"/><stop offset=".999" stop-color="#603813"/></radialGradient><path fill="url(#Ot7qo0NghMgBD7Cr2o942i)" d="M18.042,9.367c-1.792,0.607-5.642,2.697-6.587,7.05c-0.408,1.879-0.533,4.417,1.021,8.406 c0.015,0.022,0.03,0.046,0.044,0.063c-0.709-3.422-0.56-5.251,0.148-7.363c1.05-3.136,2.378-4.8,3.774-5.61 c2.048-1.166,3.977,0.208,4.426,0.568c1.617,1.298,4.279,1.24,5.846,0.222c0.087-0.056,0.368-0.293,0.779-0.554 c1.289-0.821,3.399-1.501,5.505,1.034c0.738,0.889,1.472,2.145,2.119,3.904c0.479,1.295,0.741,3.624,0.377,6.792 c0.023-0.033,0.051-0.078,0.074-0.113c1.23-2.689,1.079-5.867,0.78-7.235c-0.97-4.443-4.187-6.366-6.081-7.088 c-1.6-0.61-2.791-0.445-3.589,0.259c-0.421,0.371-0.884,0.698-1.332,0.879c-1.133,0.454-2.722,0.499-3.883-0.791 C20.433,8.643,19.15,8.992,18.042,9.367z"/><radialGradient id="Ot7qo0NghMgBD7Cr2o942j" cx="23.705" cy="1293.265" r="10.976" gradientTransform="matrix(1 0 0 .8271 0 -1055.677)" gradientUnits="userSpaceOnUse"><stop offset="0" stop-color="#95704e"/><stop offset=".021" stop-color="#946f4c"/><stop offset=".392" stop-color="#855d36"/><stop offset=".629" stop-color="#7f562e"/><stop offset=".759" stop-color="#7a5129"/><stop offset=".92" stop-color="#6a421c"/><stop offset=".999" stop-color="#603813"/></radialGradient><path fill="url(#Ot7qo0NghMgBD7Cr2o942j)" d="M17.755,9.804c-1.648,0.633-5.331,2.599-6.223,6.931c-0.385,1.862-0.474,4.306,0.954,8.115 c0.013,0.018,0.024,0.036,0.035,0.045c-0.608-2.924-0.609-4.969,0.166-7.308c0.971-2.932,2.273-4.639,3.79-5.558 c1.879-1.112,3.749,0.07,4.403,0.618c1.609,1.35,4.164,1.307,5.788,0.263c0.116-0.074,0.396-0.299,0.779-0.555 c1.424-0.95,3.406-1.512,5.473,0.905c0.759,0.887,1.519,2.124,2.16,3.844c0.514,1.363,0.777,3.669,0.414,6.775 c0.02-0.03,0.045-0.07,0.065-0.102c1.052-2.339,0.997-5.319,0.681-6.837c-0.836-4.022-3.673-5.948-5.504-6.861 c-1.679-0.837-2.915-0.708-3.776-0.041c-0.492,0.382-0.983,0.763-1.411,0.952c-1.048,0.457-2.757,0.763-4.11-0.703 C20.255,9.003,18.918,9.357,17.755,9.804z"/><radialGradient id="Ot7qo0NghMgBD7Cr2o942k" cx="23.697" cy="1293.535" r="10.804" gradientTransform="matrix(1 0 0 .8271 0 -1055.629)" gradientUnits="userSpaceOnUse"><stop offset="0" stop-color="#8a6542"/><stop offset=".346" stop-color="#7f5731"/><stop offset=".629" stop-color="#795029"/><stop offset=".776" stop-color="#744b24"/><stop offset=".96" stop-color="#643c17"/><stop offset=".999" stop-color="#603813"/></radialGradient><path fill="url(#Ot7qo0NghMgBD7Cr2o942k)" d="M17.468,10.242c-1.507,0.649-5.019,2.501-5.86,6.811c-0.361,1.846-0.414,4.188,0.888,7.815 c0.01,0.015,0.018,0.025,0.025,0.027c-0.507-2.426-0.658-4.68,0.181-7.245c0.893-2.728,2.168-4.479,3.806-5.506 c1.711-1.058,3.524-0.072,4.379,0.668c1.61,1.393,4.049,1.376,5.73,0.305c0.145-0.092,0.422-0.308,0.779-0.556 c1.556-1.084,3.415-1.524,5.441,0.776c0.78,0.885,1.562,2.104,2.201,3.783c0.545,1.432,0.818,3.717,0.456,6.759 c0.017-0.027,0.039-0.062,0.056-0.09c0.875-1.99,0.907-4.773,0.577-6.44c-0.713-3.599-3.154-5.546-4.927-6.634 c-1.754-1.077-3.043-0.975-3.963-0.341c-0.566,0.39-1.083,0.828-1.489,1.024c-0.963,0.459-2.791,1.026-4.338-0.614 C20.076,9.363,18.686,9.718,17.468,10.242z"/><radialGradient id="Ot7qo0NghMgBD7Cr2o942l" cx="23.688" cy="1293.801" r="10.631" gradientTransform="matrix(1 0 0 .8271 0 -1055.58)" gradientUnits="userSpaceOnUse"><stop offset="0" stop-color="#805a36"/><stop offset=".285" stop-color="#79512b"/><stop offset=".629" stop-color="#734a23"/><stop offset=".803" stop-color="#6e451e"/><stop offset=".999" stop-color="#603813"/></radialGradient><path fill="url(#Ot7qo0NghMgBD7Cr2o942l)" d="M17.181,10.679c-1.369,0.655-4.707,2.404-5.496,6.692 c-0.337,1.829-0.357,4.061,0.819,7.507c0.008,0.011,0.013,0.015,0.016,0.008c-0.407-1.928-0.703-4.381,0.201-7.173 c0.817-2.524,2.063-4.318,3.821-5.454c1.542-1.004,3.303-0.217,4.356,0.718c1.613,1.433,3.935,1.445,5.673,0.347 c0.174-0.11,0.448-0.317,0.779-0.557c1.686-1.223,3.426-1.538,5.409,0.647c0.802,0.883,1.608,2.083,2.242,3.723 c0.58,1.5,0.855,3.764,0.493,6.742c0.014-0.023,0.033-0.054,0.047-0.079c0.697-1.64,0.819-4.225,0.477-6.043 c-0.598-3.174-2.629-5.154-4.349-6.407c-1.822-1.326-3.173-1.245-4.149-0.64c-0.641,0.397-1.182,0.894-1.568,1.096 c-0.878,0.462-2.826,1.29-4.566-0.525C19.897,9.723,18.45,10.072,17.181,10.679z"/><radialGradient id="Ot7qo0NghMgBD7Cr2o942m" cx="23.678" cy="1294.067" r="10.46" gradientTransform="matrix(1 0 0 .8271 0 -1055.532)" gradientUnits="userSpaceOnUse"><stop offset="0" stop-color="#754f2a"/><stop offset=".151" stop-color="#724b26"/><stop offset=".629" stop-color="#6d441e"/><stop offset=".847" stop-color="#683f19"/><stop offset=".999" stop-color="#603813"/></radialGradient><path fill="url(#Ot7qo0NghMgBD7Cr2o942m)" d="M16.894,11.116c-1.235,0.654-4.396,2.306-5.133,6.573 c-0.314,1.813-0.299,3.933,0.751,7.197c0.005,0.007,0.007,0.005,0.007-0.01c-0.306-1.43-0.747-4.08,0.22-7.098 c0.743-2.319,1.958-4.157,3.837-5.402c1.374-0.95,3.084-0.366,4.332,0.767c1.619,1.471,3.822,1.516,5.615,0.388 c0.203-0.127,0.472-0.327,0.779-0.558c1.811-1.366,3.438-1.553,5.378,0.517c0.825,0.88,1.658,2.061,2.283,3.662 c0.617,1.567,0.892,3.814,0.531,6.728c0.01-0.02,0.027-0.046,0.038-0.068c0.519-1.29,0.727-3.679,0.377-5.649 c-0.489-2.748-2.096-4.769-3.772-6.18c-1.882-1.585-3.304-1.518-4.336-0.94c-0.717,0.401-1.282,0.959-1.646,1.169 c-0.793,0.465-2.861,1.553-4.794-0.437C19.719,10.083,18.211,10.419,16.894,11.116z"/><radialGradient id="Ot7qo0NghMgBD7Cr2o942n" cx="23.667" cy="1294.332" r="10.293" gradientTransform="matrix(1 0 0 .8271 0 -1055.484)" gradientUnits="userSpaceOnUse"><stop offset="0" stop-color="#6b431f"/><stop offset=".629" stop-color="#663e18"/><stop offset=".975" stop-color="#613914"/><stop offset=".999" stop-color="#603813"/></radialGradient><path fill="url(#Ot7qo0NghMgBD7Cr2o942n)" d="M16.607,11.554c-1.106,0.648-4.084,2.208-4.769,6.454c-0.29,1.796-0.24,3.805,0.683,6.887 c0.003,0.004,0.002-0.005-0.002-0.028c-0.205-0.932-0.784-3.777,0.238-7.026c0.673-2.113,1.853-3.997,3.853-5.35 c1.205-0.896,2.869-0.518,4.309,0.817c1.626,1.508,3.71,1.588,5.557,0.43c0.232-0.145,0.497-0.338,0.779-0.559 c1.931-1.516,3.452-1.569,5.346,0.388c0.848,0.876,1.705,2.04,2.324,3.602c0.652,1.635,0.929,3.858,0.569,6.71 c0.007-0.016,0.022-0.038,0.029-0.056c0.341-0.941,0.629-3.128,0.277-5.249c-0.386-2.322-1.557-4.387-3.195-5.953 c-1.933-1.849-3.435-1.793-4.523-1.24c-0.793,0.403-1.381,1.024-1.724,1.241c-0.709,0.467-2.895,1.817-5.021-0.348 C19.54,10.443,17.967,10.757,16.607,11.554z"/><path fill="#603813" d="M12.521,24.895c0,0-2.13-7.978,4.124-12.288c1.037-0.842,2.657-0.672,4.285,0.867 c1.858,1.756,4.139,1.661,6.278-0.089c2.045-1.673,3.467-1.588,5.314,0.259s3.652,4.954,2.972,10.235 c0.292-0.972,1.16-6.789-2.421-10.624c-3.481-3.729-5.767-0.745-6.513-0.227c-0.624,0.47-2.93,2.08-5.249-0.259 c-1.949-1.966-3.597-1.685-4.99-0.778C14.927,12.899,9.832,15.11,12.521,24.895z"/></g><g><path fill="#f4b922" d="M12.521,24.895c0.041-3.086-0.186-6.65,4.253-10.441c1.025-0.833,2.559-0.687,4.169,0.834 c1.836,1.736,4.118,1.859,6.232,0.13c2.021-1.654,3.402-1.798,4.982-0.316c1.882,1.767,3.199,3.868,3.337,8.777 c0.288-0.961,1.101-6.126-2.438-9.917c-3.441-3.686-5.701-0.737-6.437-0.224c-0.617,0.464-2.896,2.056-5.188-0.256 c-1.926-1.944-3.449-1.754-4.826-0.858C15.227,13.52,10.383,17.653,12.521,24.895z"/><path fill="#dba31f" d="M12.521,24.895c0.035-2.645-0.432-6.772,4.256-10.63c1.025-0.833,2.568-0.688,4.177,0.833 c1.836,1.736,4.118,1.859,6.232,0.13c2.021-1.654,3.406-1.766,5.02-0.234c1.874,1.775,3.205,3.924,3.288,8.885 c0.288-0.961,1.099-6.126-2.44-9.917c-3.441-3.686-5.701-0.737-6.437-0.224c-0.617,0.464-2.896,2.056-5.188-0.256 c-1.926-1.944-3.449-1.754-4.826-0.858C15.227,13.52,10.383,17.653,12.521,24.895z"/><path fill="#c18e1b" d="M12.521,24.895c0.029-2.204-0.677-6.894,4.26-10.818c1.025-0.833,2.576-0.689,4.186,0.832 c1.836,1.736,4.118,1.859,6.232,0.13c2.021-1.654,3.409-1.733,5.059-0.152c1.866,1.783,3.208,3.979,3.236,8.992 c0.288-0.961,1.1-6.125-2.439-9.916c-3.441-3.686-5.701-0.737-6.437-0.224c-0.617,0.464-2.896,2.056-5.188-0.256 c-1.926-1.944-3.449-1.754-4.826-0.858C15.227,13.52,10.383,17.653,12.521,24.895z"/><path fill="#a87818" d="M12.521,24.895c0.023-1.764-0.922-7.015,4.263-11.007c1.025-0.833,2.585-0.69,4.194,0.831 c1.836,1.736,4.118,1.859,6.232,0.13c2.021-1.654,3.413-1.7,5.098-0.071c1.858,1.792,3.211,4.036,3.186,9.101 c0.288-0.961,1.1-6.126-2.439-9.917c-3.441-3.686-5.701-0.737-6.437-0.224c-0.617,0.464-2.896,2.056-5.188-0.256 c-1.926-1.944-3.449-1.754-4.826-0.858C15.227,13.52,10.383,17.653,12.521,24.895z"/><path fill="#8e6215" d="M12.521,24.895c0.017-1.323-1.168-7.137,4.267-11.196c1.025-0.833,2.593-0.692,4.203,0.83 c1.836,1.736,4.118,1.859,6.232,0.13c2.021-1.654,3.416-1.667,5.136,0.011c1.85,1.8,3.215,4.092,3.135,9.209 c0.288-0.961,1.1-6.126-2.439-9.917c-3.441-3.686-5.701-0.737-6.437-0.224c-0.617,0.464-2.896,2.056-5.188-0.256 c-1.926-1.944-3.449-1.754-4.826-0.858C15.227,13.52,10.383,17.653,12.521,24.895z"/><path fill="#754c12" d="M12.521,24.895c0.012-0.882-1.413-7.259,4.27-11.384c1.025-0.833,2.602-0.693,4.211,0.829 c1.836,1.736,4.118,1.859,6.232,0.13c2.021-1.654,3.42-1.635,5.175,0.093c1.842,1.809,3.219,4.147,3.085,9.316 c0.288-0.961,1.1-6.125-2.439-9.916c-3.441-3.686-5.701-0.737-6.437-0.224c-0.617,0.464-2.896,2.056-5.188-0.256 c-1.926-1.944-3.449-1.754-4.826-0.858C15.227,13.52,10.383,17.653,12.521,24.895z"/><path fill="#5b370e" d="M12.521,24.895c0.006-0.441-1.659-7.38,4.273-11.573c1.025-0.833,2.611-0.694,4.22,0.827 c1.836,1.736,4.118,1.859,6.232,0.13c2.021-1.654,3.423-1.602,5.214,0.174c1.834,1.817,3.222,4.205,3.034,9.426 c0.288-0.961,1.1-6.127-2.439-9.918c-3.441-3.686-5.701-0.737-6.437-0.224c-0.617,0.464-2.896,2.056-5.188-0.256 c-1.926-1.944-3.449-1.754-4.826-0.858C15.227,13.52,10.383,17.653,12.521,24.895z"/><path fill="#42210b" d="M12.521,24.895c0,0-1.904-7.502,4.277-11.762c1.025-0.833,2.619-0.695,4.228,0.826 c1.836,1.736,4.118,1.859,6.232,0.13c2.021-1.654,3.427-1.569,5.252,0.256s3.227,4.261,2.984,9.534 c0.288-0.961,1.099-6.127-2.44-9.918c-3.441-3.686-5.701-0.737-6.437-0.224c-0.617,0.464-2.896,2.056-5.188-0.256 c-1.926-1.944-3.449-1.754-4.826-0.858C15.227,13.52,10.383,17.653,12.521,24.895z"/></g><g><radialGradient id="Ot7qo0NghMgBD7Cr2o942o" cx="-216.077" cy="1033.928" r="1.709" gradientTransform="matrix(1.37 0 0 1.3195 320.053 -1337.705)" gradientUnits="userSpaceOnUse"><stop offset=".245" stop-color="#cc9000"/><stop offset=".415" stop-color="#d09504" stop-opacity=".822"/><stop offset=".627" stop-color="#dca50f" stop-opacity=".599"/><stop offset=".851" stop-color="#eebd20" stop-opacity=".363"/><stop offset="1" stop-color="#fed12e" stop-opacity="0"/></radialGradient><path fill="url(#Ot7qo0NghMgBD7Cr2o942o)" d="M24.01,27.243c-0.788,0-1.429-0.2-1.825-0.417c-0.291-0.16-0.586-0.086-0.393,0.415 c0.261,0.679,0.858,1.48,2.218,1.48c1.337,0,1.936-0.773,2.204-1.445c0.206-0.516-0.091-0.568-0.344-0.449 C25.382,27.055,24.778,27.243,24.01,27.243z"/><radialGradient id="Ot7qo0NghMgBD7Cr2o942p" cx="-205.087" cy="1366.788" r="1.761" gradientTransform="matrix(1.4827 .036 -.0172 .7101 351.695 -936.767)" gradientUnits="userSpaceOnUse"><stop offset=".479" stop-color="#fed53f"/><stop offset=".926" stop-color="#fed53f" stop-opacity=".141"/><stop offset="1" stop-color="#fed53f" stop-opacity="0"/></radialGradient><path fill="url(#Ot7qo0NghMgBD7Cr2o942p)" d="M26.874,26.473c-0.018,0.757-1.286,1.339-2.831,1.302 c-1.545-0.038-2.782-0.681-2.764-1.438s1.286-1.339,2.831-1.302C25.655,25.073,26.892,25.717,26.874,26.473z"/><radialGradient id="Ot7qo0NghMgBD7Cr2o942q" cx="24.117" cy="1632.354" r="1.411" gradientTransform="matrix(1 0 0 .6596 0 -1050.344)" gradientUnits="userSpaceOnUse"><stop offset=".004" stop-color="#fff4c9"/><stop offset="1" stop-color="#fff4c9" stop-opacity="0"/></radialGradient><ellipse cx="24.117" cy="26.357" fill="url(#Ot7qo0NghMgBD7Cr2o942q)" rx="1.411" ry=".931"/></g><g><path fill="#805b2a" d="M14.322,22.228c-0.023,0.367,0.055,0.336,0.196,0.519c0,0,1.594,2.204,6.402,0.695 c0.348-0.124,0.598-0.36,0.562-0.644C20.866,17.916,14.699,18.633,14.322,22.228z"/><path fill="#fff" d="M14.393,22.008c-0.12,0.258-0.082,0.464,0,0.672c0.343,0.906,3.095,4.131,6.809,0.745 c0.277-0.239,0.321-0.45,0.252-0.748c-0.069-0.299-1.031-2.739-3.552-2.739C15.405,19.938,14.601,21.657,14.393,22.008z"/><linearGradient id="Ot7qo0NghMgBD7Cr2o942r" x1="15.901" x2="20.085" y1="1174.007" y2="1174.007" gradientTransform="translate(0 -1152)" gradientUnits="userSpaceOnUse"><stop offset="0" stop-color="#c69c6d"/><stop offset="1" stop-color="#754c24"/></linearGradient><circle cx="17.993" cy="22.007" r="2.092" fill="url(#Ot7qo0NghMgBD7Cr2o942r)"/><radialGradient id="Ot7qo0NghMgBD7Cr2o942s" cx="17.993" cy="1174.007" r="1.053" gradientTransform="translate(0 -1152)" gradientUnits="userSpaceOnUse"><stop offset="0" stop-color="#1c1911"/><stop offset=".999" stop-color="#171714"/></radialGradient><circle cx="17.993" cy="22.007" r="1.053" fill="url(#Ot7qo0NghMgBD7Cr2o942s)"/><circle cx="17.484" cy="21.464" r=".494" fill="#fff"/></g><g><path fill="#805b2a" d="M33.574,22.228c0.023,0.367-0.055,0.336-0.196,0.519c0,0-1.594,2.204-6.402,0.695 c-0.348-0.124-0.598-0.36-0.562-0.644C27.03,17.916,33.197,18.633,33.574,22.228z"/><path fill="#fff" d="M33.503,22.008c0.12,0.258,0.082,0.464,0,0.672c-0.343,0.906-3.095,4.131-6.809,0.745 c-0.277-0.239-0.321-0.45-0.252-0.748c0.069-0.299,1.031-2.739,3.552-2.739C32.49,19.938,33.295,21.657,33.503,22.008z"/><linearGradient id="Ot7qo0NghMgBD7Cr2o942t" x1="73.432" x2="77.616" y1="-51.87" y2="-51.87" gradientTransform="matrix(1 0 0 -1 -45.622 -29.863)" gradientUnits="userSpaceOnUse"><stop offset="0" stop-color="#c69c6d"/><stop offset="1" stop-color="#754c24"/></linearGradient><circle cx="29.902" cy="22.007" r="2.092" fill="url(#Ot7qo0NghMgBD7Cr2o942t)"/><radialGradient id="Ot7qo0NghMgBD7Cr2o942u" cx="-1598.476" cy="1174.007" r="1.053" gradientTransform="matrix(-1 0 0 1 -1568.574 -1152)" gradientUnits="userSpaceOnUse"><stop offset="0" stop-color="#1c1911"/><stop offset=".999" stop-color="#171714"/></radialGradient><circle cx="29.902" cy="22.007" r="1.053" fill="url(#Ot7qo0NghMgBD7Cr2o942u)"/><circle cx="29.422" cy="21.464" r=".494" fill="#fff"/></g><g><path fill="#805b2a" d="M32.167,18.379c-1.366-0.349-2.812-0.246-4.06,0.234c-0.388,0.149-0.824-0.044-0.974-0.433 c-0.149-0.388,0.044-0.824,0.433-0.974c0.04-0.015,0.081-0.027,0.122-0.035l0.017-0.003c1.614-0.316,3.275-0.127,4.712,0.517 c0.187,0.083,0.27,0.302,0.187,0.489c-0.075,0.167-0.258,0.251-0.429,0.207L32.167,18.379z"/><path fill="#805b2a" d="M15.833,17.684c1.437-0.643,3.098-0.833,4.712-0.517l0.013,0.003 c0.408,0.08,0.675,0.476,0.595,0.884s-0.476,0.675-0.884,0.595c-0.042-0.008-0.087-0.021-0.126-0.036 c-1.248-0.48-2.693-0.583-4.06-0.234l-0.007,0.002c-0.198,0.051-0.4-0.069-0.45-0.267C15.581,17.936,15.672,17.756,15.833,17.684z"/></g><g><radialGradient id="Ot7qo0NghMgBD7Cr2o942v" cx="-118.972" cy="1179.523" r="2.561" gradientTransform="matrix(1.1109 0 0 1.3094 156.193 -1514.33)" gradientUnits="userSpaceOnUse"><stop offset=".696" stop-color="#cc9000"/><stop offset="1" stop-color="#cc9000" stop-opacity="0"/></radialGradient><path fill="url(#Ot7qo0NghMgBD7Cr2o942v)" d="M24,32.091c-2.85,0-2.946-1.638-2.946-1.638s0.07,3.276,2.946,3.276 s2.946-3.276,2.946-3.276S26.85,32.091,24,32.091z"/><radialGradient id="Ot7qo0NghMgBD7Cr2o942w" cx="222.445" cy="2045.635" r="3.248" fx="222.443" fy="2045.757" gradientTransform="matrix(.7953 0 0 .5951 -152.91 -1186.311)" gradientUnits="userSpaceOnUse"><stop offset=".371" stop-color="#ffd226"/><stop offset=".948" stop-color="#ffe16e"/><stop offset="1" stop-color="#ffe16e" stop-opacity="0"/></radialGradient><path fill="url(#Ot7qo0NghMgBD7Cr2o942w)" d="M27.094,30.961c0,0,0.039,1.526-3.094,1.526s-3.094-1.526-3.094-1.526 S21.593,31.73,24,31.73S27.094,30.961,27.094,30.961z"/><radialGradient id="Ot7qo0NghMgBD7Cr2o942x" cx="151.665" cy="2520.675" r="3.162" gradientTransform="matrix(.8379 0 0 .4972 -103.038 -1222.37)" gradientUnits="userSpaceOnUse"><stop offset="0" stop-color="#1c1911"/><stop offset=".999" stop-color="#171714"/></radialGradient><path fill="url(#Ot7qo0NghMgBD7Cr2o942x)" d="M21.12,30.938c-0.169,0-0.267,0.104-0.184,0.188c0.618,0.624,2.032,0.812,3.064,0.812 c1.121,0,2.446-0.188,3.064-0.812c0.083-0.084-0.015-0.188-0.184-0.188C24.975,31.011,23.055,31.016,21.12,30.938z"/></g><g><linearGradient id="Ot7qo0NghMgBD7Cr2o942y" x1="28.96" x2="28.96" y1="28.116" y2="50.402" gradientTransform="matrix(.9615 0 0 1 -3.846 0)" gradientUnits="userSpaceOnUse"><stop offset="0" stop-color="#e6e6e6"/><stop offset=".232" stop-color="#dedede"/><stop offset=".586" stop-color="#c9c9c9"/><stop offset=".999" stop-color="#a9a8a8"/></linearGradient><path fill="url(#Ot7qo0NghMgBD7Cr2o942y)" d="M40.571,28H7.429c-0.746,0-1.312,0.673-1.184,1.408L9.133,46h29.733l2.888-16.592 C41.883,28.673,41.317,28,40.571,28z"/><linearGradient id="Ot7qo0NghMgBD7Cr2o942z" x1="28.975" x2="28.975" y1="23.738" y2="44.786" gradientTransform="matrix(.9615 0 0 1 -3.846 0)" gradientUnits="userSpaceOnUse"><stop offset="0" stop-color="#dedede"/><stop offset=".173" stop-color="#d6d6d6"/><stop offset=".438" stop-color="#c1c1c1"/><stop offset=".759" stop-color="#9e9e9e"/><stop offset=".999" stop-color="gray"/></linearGradient><path fill="url(#Ot7qo0NghMgBD7Cr2o942z)" d="M40.887,29H7.142c-0.499,0-0.877,0.449-0.792,0.941L9.133,46h29.733l2.812-16.058 C41.765,29.45,41.387,29,40.887,29z"/><linearGradient id="Ot7qo0NghMgBD7Cr2o942A" x1="23.792" x2="23.792" y1="44.004" y2="34.606" gradientUnits="userSpaceOnUse"><stop offset=".002" stop-color="#90bcfc"/><stop offset=".378" stop-color="#709cdc"/><stop offset=".981" stop-color="#416dac"/></linearGradient><ellipse cx="23.792" cy="38.292" fill="url(#Ot7qo0NghMgBD7Cr2o942A)" rx="3.458" ry="2.268"/></g></svg>