<svg fill="#000000" xmlns="http://www.w3.org/2000/svg"  viewBox="0 0 24 24" width="24px" height="24px"><path d="M 6 3 C 4.3549904 3 3 4.3549904 3 6 C 3 7.6450096 4.3549904 9 6 9 C 7.2931586 9 8.3951413 8.15733 8.8125 7 L 17 7 C 18.116666 7 19 7.8833339 19 9 C 19 10.116666 18.116666 11 17 11 L 7 11 C 4.8026661 11 3 12.802666 3 15 L 3 16 L 3.203125 16 C 3.6594792 17.706363 5.1564058 19 7 19 L 15.1875 19 C 15.604859 20.15733 16.706841 21 18 21 C 19.64501 21 21 19.64501 21 18 C 21 16.35499 19.64501 15 18 15 C 16.706841 15 15.604859 15.84267 15.1875 17 L 7 17 C 5.8833339 17 5 16.116666 5 15 C 5 13.883334 5.8833339 13 7 13 L 17 13 C 18.843594 13 20.340521 11.706363 20.796875 10 L 21 10 L 21 9 C 21 6.8026661 19.197334 5 17 5 L 8.8125 5 C 8.3951413 3.84267 7.2931586 3 6 3 z M 6 5 C 6.5641294 5 7 5.4358706 7 6 C 7 6.5641294 6.5641294 7 6 7 C 5.4358706 7 5 6.5641294 5 6 C 5 5.4358706 5.4358706 5 6 5 z M 18 17 C 18.564129 17 19 17.435871 19 18 C 19 18.564129 18.564129 19 18 19 C 17.435871 19 17 18.564129 17 18 C 17 17.435871 17.435871 17 18 17 z"/></svg>