<svg fill="#000000" xmlns="http://www.w3.org/2000/svg"  viewBox="0 0 24 24" width="24px" height="24px"><path d="M 4 3 A 1 1 0 0 0 3 4 A 1 1 0 0 0 4 5 A 1 1 0 0 0 5 4 A 1 1 0 0 0 4 3 z M 7 3 L 7 5 L 21 5 L 21 3 L 7 3 z M 4 7 A 1 1 0 0 0 3 8 A 1 1 0 0 0 4 9 A 1 1 0 0 0 5 8 A 1 1 0 0 0 4 7 z M 7 7 L 7 9 L 19 9 L 19 7 L 7 7 z M 4 11 A 1 1 0 0 0 3 12 A 1 1 0 0 0 4 13 A 1 1 0 0 0 5 12 A 1 1 0 0 0 4 11 z M 7 11 L 7 13 L 17 13 L 17 11 L 7 11 z M 4 15 A 1 1 0 0 0 3 16 A 1 1 0 0 0 4 17 A 1 1 0 0 0 5 16 A 1 1 0 0 0 4 15 z M 7 15 L 7 17 L 15 17 L 15 15 L 7 15 z M 4 19 A 1 1 0 0 0 3 20 A 1 1 0 0 0 4 21 A 1 1 0 0 0 5 20 A 1 1 0 0 0 4 19 z M 7 19 L 7 21 L 13 21 L 13 19 L 7 19 z"/></svg>