<svg fill="#000000" xmlns="http://www.w3.org/2000/svg"  viewBox="0 0 64 64" width="64px" height="64px"><path d="M 11.214844 8.9511719 C 9.8242969 8.9495938 9 9 9 9 L 9 15.128906 C 6.51 15.580906 2 16 2 16 L 2 56 C 2 56 13.861628 52.463626 27 54.822266 L 27 57 C 27 57 29 58 32 58 C 35 58 37 57 37 57 L 37 54.822266 C 50.138372 52.463626 62 56 62 56 L 62 16 C 62 16 57.49 15.580906 55 15.128906 L 55 9 C 55 9 41.801 8.1937187 32 13.136719 C 24.64925 9.4294687 15.386484 8.9559062 11.214844 8.9511719 z M 12 13 C 23.979 13 27.196578 14.770078 30.017578 15.955078 L 30.699219 50.259766 C 28.269219 49.103766 25.057 46 12 46 L 12 13 z M 52 13 L 52 46 C 38.943 46 35.730781 49.103766 33.300781 50.259766 L 33.982422 15.955078 C 36.804422 14.770078 40.021 13 52 13 z M 9 18.75 L 9 49 L 5 50 L 6 19 L 9 18.75 z M 55 18.75 L 58 19 L 59 50 L 55 49 L 55 18.75 z"/></svg>