<svg fill="#000000" xmlns="http://www.w3.org/2000/svg"  viewBox="0 0 64 64" width="64px" height="64px"><path d="M 10 10 C 7.791 10 6 11.791 6 14 L 6 19 L 6 20 L 6 54 L 58 54 L 58 20 L 58 19 L 58 14 C 58 11.791 56.209 10 54 10 L 10 10 z M 10 18 L 54 18 L 54 50 L 10 50 L 10 18 z M 25.097656 20 C 22.137656 20 20.517578 22.343 20.517578 26.5 C 20.517578 30.675 22.191812 33 25.132812 33 C 28.180813 33 29.765625 30.675 29.765625 26.5 C 29.765625 22.325 28.144656 20 25.097656 20 z M 46.332031 20 C 43.372031 20 41.751953 22.343 41.751953 26.5 C 41.751953 30.675 43.425187 33 46.367188 33 C 49.414187 33 51 30.675 51 26.5 C 51 22.325 49.379031 20 46.332031 20 z M 14.550781 20.175781 C 14.409781 20.845781 13.793 21.285312 13 21.320312 L 13 23.046875 L 14.179688 23.046875 L 14.179688 32.824219 L 16.046875 32.824219 L 16.046875 20.175781 L 14.550781 20.175781 z M 35.785156 20.175781 C 35.644156 20.845781 35.027375 21.285312 34.234375 21.320312 L 34.234375 23.046875 L 35.414062 23.046875 L 35.414062 32.824219 L 37.28125 32.824219 L 37.28125 20.175781 L 35.785156 20.175781 z M 25.132812 21.832031 C 27.123813 21.832031 27.898438 23.47 27.898438 26.5 C 27.898437 29.618 26.964813 31.097656 25.132812 31.097656 C 23.300812 31.097656 22.384766 29.618 22.384766 26.5 C 22.384766 23.47 23.230812 21.832031 25.132812 21.832031 z M 46.367188 21.832031 C 48.358187 21.832031 49.132812 23.47 49.132812 26.5 C 49.132813 29.618 48.199188 31.097656 46.367188 31.097656 C 44.535188 31.097656 43.619141 29.618 43.619141 26.5 C 43.619141 23.47 44.464188 21.832031 46.367188 21.832031 z M 17.578125 35.005859 C 14.620125 35.005859 13 37.348906 13 41.503906 C 13 45.676906 14.673281 48 17.613281 48 C 20.659281 48 22.244141 45.676906 22.244141 41.503906 C 22.244141 37.330906 20.624125 35.005859 17.578125 35.005859 z M 38.814453 35.005859 C 35.856453 35.005859 34.236328 37.348906 34.236328 41.503906 C 34.236328 45.676906 35.908609 48 38.849609 48 C 41.895609 48 43.480469 45.676906 43.480469 41.503906 C 43.480469 37.330906 41.860453 35.005859 38.814453 35.005859 z M 28.265625 35.181641 C 28.124625 35.850641 27.508797 36.291172 26.716797 36.326172 L 26.716797 38.052734 L 27.896484 38.052734 L 27.896484 47.824219 L 29.763672 47.824219 L 29.763672 35.181641 L 28.265625 35.181641 z M 49.503906 35.181641 C 49.362906 35.850641 48.745125 36.291172 47.953125 36.326172 L 47.953125 38.052734 L 49.134766 38.052734 L 49.134766 47.824219 L 51 47.824219 L 51 35.181641 L 49.503906 35.181641 z M 17.613281 36.837891 C 19.603281 36.837891 20.378906 38.475906 20.378906 41.503906 C 20.378906 44.619906 19.444281 46.097656 17.613281 46.097656 C 15.782281 46.097656 14.865234 44.619906 14.865234 41.503906 C 14.865234 38.475906 15.711281 36.837891 17.613281 36.837891 z M 38.849609 36.837891 C 40.839609 36.837891 41.615234 38.475906 41.615234 41.503906 C 41.615234 44.619906 40.680609 46.097656 38.849609 46.097656 C 37.018609 46.097656 36.103516 44.619906 36.103516 41.503906 C 36.103516 38.475906 36.947609 36.837891 38.849609 36.837891 z"/></svg>