<svg xmlns="http://www.w3.org/2000/svg" xmlns:xlink="http://www.w3.org/1999/xlink" viewBox="0 0 48 48" width="48px" height="48px"><defs><radialGradient id="dYTVBHncw_iCrFak8XqMWi" cx="23.84" cy="8.89" r="3.96" gradientUnits="userSpaceOnUse"><stop offset="0" stop-color="#c69c6d"/><stop offset=".29" stop-color="#a77d51"/><stop offset=".58" stop-color="#8c6239"/><stop offset="1" stop-color="#603813"/></radialGradient><radialGradient id="dYTVBHncw_iCrFak8XqMWo" cx="24.05" cy="22.26" r="5.54" gradientTransform="matrix(1 0 0 1.07 0 -1.54)" gradientUnits="userSpaceOnUse"><stop offset="0" stop-color="#ffd226"/><stop offset=".38" stop-color="#fbc821"/><stop offset="1" stop-color="#f0af13"/></radialGradient><radialGradient id="dYTVBHncw_iCrFak8XqMWq" cx="23.96" cy="16.36" r="2.59" gradientUnits="userSpaceOnUse"><stop offset="0" stop-color="#f7d563"/><stop offset=".63" stop-color="#f7c925"/><stop offset="1" stop-color="#eaab15"/></radialGradient><radialGradient id="dYTVBHncw_iCrFak8XqMWr" cx="23.96" cy="16.23" r="2.59" gradientUnits="userSpaceOnUse"><stop offset="0" stop-color="#f0ca57"/><stop offset=".63" stop-color="#f0bf24"/><stop offset="1" stop-color="#e5a616"/></radialGradient><radialGradient id="dYTVBHncw_iCrFak8XqMWs" cx="23.96" cy="16.1" r="2.59" gradientUnits="userSpaceOnUse"><stop offset="0" stop-color="#e8be4c"/><stop offset=".63" stop-color="#e8b623"/><stop offset="1" stop-color="#dfa218"/></radialGradient><radialGradient id="dYTVBHncw_iCrFak8XqMWt" cx="23.96" cy="15.96" r="2.59" gradientUnits="userSpaceOnUse"><stop offset="0" stop-color="#e0b341"/><stop offset=".63" stop-color="#e0ac22"/><stop offset="1" stop-color="#da9d1a"/></radialGradient><radialGradient id="dYTVBHncw_iCrFak8XqMWu" cx="23.96" cy="15.83" r="2.59" gradientUnits="userSpaceOnUse"><stop offset="0" stop-color="#d8a736"/><stop offset=".63" stop-color="#d8a321"/><stop offset="1" stop-color="#d4991c"/></radialGradient><radialGradient id="dYTVBHncw_iCrFak8XqMWv" cx="23.96" cy="15.7" r="2.59" gradientUnits="userSpaceOnUse"><stop offset="0" stop-color="#d19c2a"/><stop offset=".63" stop-color="#d19920"/><stop offset="1" stop-color="#cf941d"/></radialGradient><radialGradient id="dYTVBHncw_iCrFak8XqMWas" cx="3.61" cy="34.34" r=".05" gradientTransform="rotate(-26 28.317 28.62) scale(1 .67)" xlink:href="#dYTVBHncw_iCrFak8XqMWa"/><radialGradient id="dYTVBHncw_iCrFak8XqMWb" cx="42.56" cy="36.94" r="16.47" gradientTransform="matrix(-.96 0 0 1 80.37 0)" gradientUnits="userSpaceOnUse"><stop offset="0" stop-color="#ffe16e"/><stop offset=".26" stop-color="#ffd226"/><stop offset=".42" stop-color="#edbc23"/><stop offset=".63" stop-color="#d9a420"/><stop offset=".83" stop-color="#cd951f"/><stop offset="1" stop-color="#c9901e"/></radialGradient><radialGradient id="dYTVBHncw_iCrFak8XqMWc" cx="32.17" cy="41.63" r="14.92" gradientTransform="matrix(-.92 .29 .17 .59 45.6 7.88)" gradientUnits="userSpaceOnUse"><stop offset="0" stop-color="#8c6239" stop-opacity=".9"/><stop offset="1" stop-color="#8c6239" stop-opacity="0"/></radialGradient><radialGradient id="dYTVBHncw_iCrFak8XqMWar" cx="4.39" cy="35.86" r="3.32" gradientTransform="rotate(-26 30.212 29.9) scale(1 .67)" xlink:href="#dYTVBHncw_iCrFak8XqMWa"/><radialGradient id="dYTVBHncw_iCrFak8XqMWd" cx="-.78" cy="25.19" r="9.36" gradientTransform="matrix(.85 .52 -.58 .95 49.77 1.63)" gradientUnits="userSpaceOnUse"><stop offset="0" stop-color="#ffe16e"/><stop offset=".58" stop-color="#ffd226"/><stop offset="1" stop-color="#f0af13"/></radialGradient><radialGradient id="dYTVBHncw_iCrFak8XqMWaq" cx="5.05" cy="34.85" r="4.56" gradientTransform="rotate(-26 30.132 29.061) scale(1 .67)" xlink:href="#dYTVBHncw_iCrFak8XqMWm"/><radialGradient id="dYTVBHncw_iCrFak8XqMWm" cx="28.12" cy="34.89" r="4.56" gradientTransform="matrix(-.9 -.44 -.29 .6 78.41 26.28)" gradientUnits="userSpaceOnUse"><stop offset=".7" stop-color="#ffd226"/><stop offset="1" stop-color="#f0af13"/></radialGradient><radialGradient id="dYTVBHncw_iCrFak8XqMWa" cx="27.46" cy="35.91" r="3.32" gradientTransform="matrix(-.9 -.44 -.29 .6 78.78 26.4)" gradientUnits="userSpaceOnUse"><stop offset="0" stop-color="#ffe16e"/><stop offset="1" stop-color="#ffd226"/></radialGradient><radialGradient id="dYTVBHncw_iCrFak8XqMWx" cx="26.68" cy="34.38" r=".05" gradientTransform="matrix(-.9 -.44 -.29 .6 78.41 25.44)" xlink:href="#dYTVBHncw_iCrFak8XqMWa"/><radialGradient id="dYTVBHncw_iCrFak8XqMWn" cx="29.65" cy="36.03" r="2.24" gradientTransform="matrix(-1 0 0 1 71.05 0)" gradientUnits="userSpaceOnUse"><stop offset="0" stop-color="#c9901e"/><stop offset=".1" stop-color="#c9901e" stop-opacity=".94"/><stop offset=".29" stop-color="#c9901e" stop-opacity=".79"/><stop offset=".54" stop-color="#c9901e" stop-opacity=".54"/><stop offset=".83" stop-color="#c9901e" stop-opacity=".21"/><stop offset="1" stop-color="#c9901e" stop-opacity="0"/></radialGradient><radialGradient id="dYTVBHncw_iCrFak8XqMWf" cx="22.08" cy="38.06" r="15.32" gradientTransform="matrix(-.92 .29 .17 .59 53.51 9.31)" gradientUnits="userSpaceOnUse"><stop offset="0" stop-color="#ffe16e"/><stop offset=".26" stop-color="#ffd226"/><stop offset=".47" stop-color="#f8c31e"/><stop offset=".76" stop-color="#f2b416"/><stop offset="1" stop-color="#f0af13"/></radialGradient><radialGradient id="dYTVBHncw_iCrFak8XqMWy" cx="7.92" cy="36.94" r="16.47" gradientTransform="matrix(.96 0 0 1 .92 0)" xlink:href="#dYTVBHncw_iCrFak8XqMWb"/><radialGradient id="dYTVBHncw_iCrFak8XqMWz" cx="7.92" cy="36.94" r="16.47" gradientTransform="matrix(.96 0 0 1 .92 0)" xlink:href="#dYTVBHncw_iCrFak8XqMWb"/><radialGradient id="dYTVBHncw_iCrFak8XqMWA" cx="8.54" cy="36.94" r="15.95" xlink:href="#dYTVBHncw_iCrFak8XqMWb"/><radialGradient id="dYTVBHncw_iCrFak8XqMWB" cx="25.12" cy="41.63" r="14.92" gradientTransform="matrix(.92 .29 -.17 .59 8.98 9.9)" xlink:href="#dYTVBHncw_iCrFak8XqMWc"/><radialGradient id="dYTVBHncw_iCrFak8XqMWC" cx="22.29" cy="25.12" r="9.36" gradientTransform="matrix(-.85 .52 .58 .95 17.92 -10.41)" xlink:href="#dYTVBHncw_iCrFak8XqMWd"/><radialGradient id="dYTVBHncw_iCrFak8XqMWao" cx="23.93" cy="27.35" r="4.15" gradientTransform="translate(.07)" gradientUnits="userSpaceOnUse"><stop offset="0" stop-color="#d1d1d1"/><stop offset="1" stop-color="#ccc"/></radialGradient><radialGradient id="dYTVBHncw_iCrFak8XqMWE" cx="7.76" cy="38.06" r="15.32" gradientTransform="matrix(.92 .29 -.17 .59 7.68 13.4)" xlink:href="#dYTVBHncw_iCrFak8XqMWf"/><radialGradient id="dYTVBHncw_iCrFak8XqMWF" cx="30.6" cy="39.85" r="10.47" gradientTransform="matrix(.95 -.17 .16 .99 -5.29 4.96)" xlink:href="#dYTVBHncw_iCrFak8XqMWf"/><radialGradient id="dYTVBHncw_iCrFak8XqMWk" cx="24.03" cy="29.59" r="6.76" gradientTransform="matrix(.95 0 0 1.7 1.28 -20.58)" gradientUnits="userSpaceOnUse"><stop offset="0" stop-color="#f2f2f2"/><stop offset="1" stop-color="#ccc"/></radialGradient><radialGradient id="dYTVBHncw_iCrFak8XqMWg" cx="644.25" cy="48.04" r="1.78" gradientTransform="matrix(.87 .49 .59 -1.06 -561.42 -247.25)" gradientUnits="userSpaceOnUse"><stop offset="0" stop-color="#aa8765"/><stop offset=".09" stop-color="#a17c57"/><stop offset=".27" stop-color="#926941"/><stop offset=".39" stop-color="#8c6239"/><stop offset=".52" stop-color="#875d34"/><stop offset=".68" stop-color="#774e27"/><stop offset=".85" stop-color="#603813"/></radialGradient><radialGradient id="dYTVBHncw_iCrFak8XqMWG" cx="-5.52" cy="-10.28" r="1.78" gradientTransform="matrix(-.87 .49 -.59 -1.06 7.57 7.71)" xlink:href="#dYTVBHncw_iCrFak8XqMWg"/><radialGradient id="dYTVBHncw_iCrFak8XqMWh" cx="32.03" cy="2.34" r=".75" gradientTransform="matrix(.92 .17 -.41 2.17 .16 2.18)" gradientUnits="userSpaceOnUse"><stop offset="0" stop-color="#ffe16e"/><stop offset=".46" stop-color="#ffd226"/><stop offset=".74" stop-color="#f8c21d"/><stop offset="1" stop-color="#f0af13"/></radialGradient><radialGradient id="dYTVBHncw_iCrFak8XqMWH" cx="39.7" cy="2.34" r=".75" gradientTransform="matrix(-.92 .17 .41 2.17 54.57 .84)" xlink:href="#dYTVBHncw_iCrFak8XqMWh"/><radialGradient id="dYTVBHncw_iCrFak8XqMWI" cx="-8.79" cy="24.03" r="5.9" gradientTransform="matrix(.88 0 0 1.07 31.71 -13.75)" gradientUnits="userSpaceOnUse"><stop offset="0" stop-color="#ffe16e"/><stop offset=".63" stop-color="#ffd226"/><stop offset=".75" stop-color="#fdcd23"/><stop offset=".9" stop-color="#f6bd1b"/><stop offset="1" stop-color="#f0af13"/></radialGradient><radialGradient id="dYTVBHncw_iCrFak8XqMWJ" cx="63.55" cy="6.65" r=".8" gradientTransform="matrix(1.32 0 0 1.32 -59.92 5.43)" gradientUnits="userSpaceOnUse"><stop offset=".7" stop-color="#cc9000"/><stop offset=".73" stop-color="#cc9000" stop-opacity=".96"/><stop offset=".77" stop-color="#cc9000" stop-opacity=".85"/><stop offset=".83" stop-color="#cc9000" stop-opacity=".66"/><stop offset=".9" stop-color="#cc9000" stop-opacity=".41"/><stop offset=".98" stop-color="#cc9000" stop-opacity=".08"/><stop offset="1" stop-color="#cc9000" stop-opacity="0"/></radialGradient><radialGradient id="dYTVBHncw_iCrFak8XqMWK" cx="21.93" cy="53.77" r=".71" gradientTransform="matrix(.04 1.45 -.82 .02 67.29 -19.24)" gradientUnits="userSpaceOnUse"><stop offset=".48" stop-color="#fed53f"/><stop offset=".67" stop-color="#fed53f" stop-opacity=".99"/><stop offset=".74" stop-color="#fed53f" stop-opacity=".97"/><stop offset=".79" stop-color="#fed53f" stop-opacity=".92"/><stop offset=".83" stop-color="#fed53f" stop-opacity=".85"/><stop offset=".87" stop-color="#fed53f" stop-opacity=".77"/><stop offset=".9" stop-color="#fed53f" stop-opacity=".66"/><stop offset=".93" stop-color="#fed53f" stop-opacity=".53"/><stop offset=".95" stop-color="#fed53f" stop-opacity=".38"/><stop offset=".98" stop-color="#fed53f" stop-opacity=".21"/><stop offset="1" stop-color="#fed53f" stop-opacity=".03"/><stop offset="1" stop-color="#fed53f" stop-opacity="0"/></radialGradient><radialGradient id="dYTVBHncw_iCrFak8XqMWL" cx="23.93" cy="-112.32" r=".57" gradientTransform="matrix(1 0 0 .56 0 76.58)" gradientUnits="userSpaceOnUse"><stop offset="0" stop-color="#fff4c9"/><stop offset=".12" stop-color="#fff4c9" stop-opacity=".87"/><stop offset=".56" stop-color="#fff4c9" stop-opacity=".41"/><stop offset=".86" stop-color="#fff4c9" stop-opacity=".11"/><stop offset="1" stop-color="#fff4c9" stop-opacity="0"/></radialGradient><radialGradient id="dYTVBHncw_iCrFak8XqMWp" cx="23.96" cy="16.5" r="2.59" gradientUnits="userSpaceOnUse"><stop offset="0" stop-color="#ffe16e"/><stop offset=".63" stop-color="#ffd226"/><stop offset="1" stop-color="#f0af13"/></radialGradient><radialGradient id="dYTVBHncw_iCrFak8XqMWM" cx="23.84" cy="8.81" r="3.86" xlink:href="#dYTVBHncw_iCrFak8XqMWi"/><radialGradient id="dYTVBHncw_iCrFak8XqMWN" cx="23.83" cy="8.87" r="3.83" gradientUnits="userSpaceOnUse"><stop offset="0" stop-color="#c09667"/><stop offset=".28" stop-color="#a3794e"/><stop offset=".58" stop-color="#895f37"/><stop offset="1" stop-color="#603813"/></radialGradient><radialGradient id="dYTVBHncw_iCrFak8XqMWO" cx="23.83" cy="8.93" r="3.8" gradientUnits="userSpaceOnUse"><stop offset="0" stop-color="#b99062"/><stop offset=".26" stop-color="#a1774c"/><stop offset=".58" stop-color="#875d34"/><stop offset="1" stop-color="#603813"/></radialGradient><radialGradient id="dYTVBHncw_iCrFak8XqMWP" cx="23.82" cy="8.98" r="3.77" gradientUnits="userSpaceOnUse"><stop offset="0" stop-color="#b3895c"/><stop offset=".23" stop-color="#9e744a"/><stop offset=".58" stop-color="#845a32"/><stop offset="1" stop-color="#603813"/></radialGradient><radialGradient id="dYTVBHncw_iCrFak8XqMWQ" cx="23.82" cy="9.04" r="3.74" gradientUnits="userSpaceOnUse"><stop offset="0" stop-color="#ad8356"/><stop offset=".21" stop-color="#9b7247"/><stop offset=".58" stop-color="#815830"/><stop offset="1" stop-color="#603813"/></radialGradient><radialGradient id="dYTVBHncw_iCrFak8XqMWR" cx="23.81" cy="9.09" r="3.71" gradientUnits="userSpaceOnUse"><stop offset="0" stop-color="#a67d51"/><stop offset=".18" stop-color="#986f45"/><stop offset=".58" stop-color="#7e552d"/><stop offset="1" stop-color="#603813"/></radialGradient><radialGradient id="dYTVBHncw_iCrFak8XqMWS" cx="23.81" cy="9.15" r="3.68" gradientUnits="userSpaceOnUse"><stop offset="0" stop-color="#a0774b"/><stop offset=".15" stop-color="#966c42"/><stop offset=".58" stop-color="#7c522b"/><stop offset="1" stop-color="#603813"/></radialGradient><radialGradient id="dYTVBHncw_iCrFak8XqMWT" cx="23.8" cy="9.2" r="3.65" gradientUnits="userSpaceOnUse"><stop offset="0" stop-color="#997046"/><stop offset=".09" stop-color="#936a41"/><stop offset=".58" stop-color="#795028"/><stop offset="1" stop-color="#603813"/></radialGradient><radialGradient id="dYTVBHncw_iCrFak8XqMWU" cx="23.8" cy="9.25" r="3.63" gradientUnits="userSpaceOnUse"><stop offset="0" stop-color="#936a40"/><stop offset=".05" stop-color="#90673e"/><stop offset=".58" stop-color="#764d26"/><stop offset="1" stop-color="#603813"/></radialGradient><radialGradient id="dYTVBHncw_iCrFak8XqMWV" cx="23.79" cy="9.3" r="3.6" gradientUnits="userSpaceOnUse"><stop offset="0" stop-color="#8d643a"/><stop offset=".58" stop-color="#734a24"/><stop offset="1" stop-color="#603813"/></radialGradient><radialGradient id="dYTVBHncw_iCrFak8XqMWW" cx="23.79" cy="9.36" r="3.57" gradientUnits="userSpaceOnUse"><stop offset="0" stop-color="#865e35"/><stop offset=".58" stop-color="#714821"/><stop offset="1" stop-color="#603813"/></radialGradient><radialGradient id="dYTVBHncw_iCrFak8XqMWX" cx="23.79" cy="9.41" r="3.55" gradientUnits="userSpaceOnUse"><stop offset="0" stop-color="#80572f"/><stop offset=".58" stop-color="#6e451f"/><stop offset="1" stop-color="#603813"/></radialGradient><radialGradient id="dYTVBHncw_iCrFak8XqMWY" cx="23.79" cy="9.46" r="3.52" gradientUnits="userSpaceOnUse"><stop offset="0" stop-color="#7a5129"/><stop offset=".58" stop-color="#6b431c"/><stop offset="1" stop-color="#603813"/></radialGradient><radialGradient id="dYTVBHncw_iCrFak8XqMWZ" cx="23.79" cy="9.51" r="3.5" gradientUnits="userSpaceOnUse"><stop offset="0" stop-color="#734b24"/><stop offset=".58" stop-color="#68401a"/><stop offset="1" stop-color="#603813"/></radialGradient><radialGradient id="dYTVBHncw_iCrFak8XqMWaa" cx="23.79" cy="9.56" r="3.47" gradientUnits="userSpaceOnUse"><stop offset="0" stop-color="#6d451e"/><stop offset=".58" stop-color="#663d18"/><stop offset="1" stop-color="#603813"/></radialGradient><radialGradient id="dYTVBHncw_iCrFak8XqMWab" cx="23.79" cy="9.6" r="3.45" gradientUnits="userSpaceOnUse"><stop offset="0" stop-color="#663e19"/><stop offset=".58" stop-color="#633b15"/><stop offset="1" stop-color="#603813"/></radialGradient><radialGradient id="dYTVBHncw_iCrFak8XqMWj" cx="26.26" cy="-21.33" r="1.37" gradientTransform="matrix(1 0 0 .62 0 25.26)" gradientUnits="userSpaceOnUse"><stop offset="0" stop-color="#fff" stop-opacity=".5"/><stop offset=".15" stop-color="#fff" stop-opacity=".46"/><stop offset=".39" stop-color="#fff" stop-opacity=".36"/><stop offset=".69" stop-color="#fff" stop-opacity=".2"/><stop offset="1" stop-color="#fff" stop-opacity="0"/></radialGradient><radialGradient id="dYTVBHncw_iCrFak8XqMWac" cx="750.41" cy="-21.33" r="1.37" gradientTransform="matrix(-1 0 0 .62 772 25.26)" xlink:href="#dYTVBHncw_iCrFak8XqMWj"/><radialGradient id="dYTVBHncw_iCrFak8XqMWad" cx="-28.47" cy="5.65" r="1.21" gradientTransform="matrix(1.03 0 0 1.31 53.22 8.42)" gradientUnits="userSpaceOnUse"><stop offset=".7" stop-opacity=".2"/><stop offset="1" stop-opacity="0"/></radialGradient><radialGradient id="dYTVBHncw_iCrFak8XqMWae" cx="-72.77" cy="-165.47" r="1.86" gradientTransform="matrix(.69 0 0 .48 74.39 94.76)" gradientUnits="userSpaceOnUse"><stop offset=".58" stop-color="#fff" stop-opacity=".4"/><stop offset="1" stop-color="#fff" stop-opacity="0"/></radialGradient><radialGradient id="dYTVBHncw_iCrFak8XqMWaf" cx="-97.03" cy="-67.35" r="1.59" gradientTransform="matrix(.67 0 0 .67 88.52 60.97)" gradientUnits="userSpaceOnUse"><stop offset="0" stop-color="#1c1911"/><stop offset="1" stop-color="#171714"/></radialGradient><radialGradient id="dYTVBHncw_iCrFak8XqMWag" cx="32.03" cy="33.01" r="2.42" gradientTransform="matrix(.91 .35 -.16 .48 -15.49 12.07)" xlink:href="#dYTVBHncw_iCrFak8XqMWj"/><radialGradient id="dYTVBHncw_iCrFak8XqMWah" cx="54.4" cy="20.56" r="2.42" gradientTransform="matrix(-.91 .35 .16 .48 85.83 10.06)" xlink:href="#dYTVBHncw_iCrFak8XqMWj"/><radialGradient id="dYTVBHncw_iCrFak8XqMWai" cx="23.93" cy="27.66" r="4.63" gradientTransform="matrix(.98 0 0 1 .48 0)" xlink:href="#dYTVBHncw_iCrFak8XqMWk"/><radialGradient id="dYTVBHncw_iCrFak8XqMWaj" cx="23.93" cy="27.61" r="4.55" gradientTransform="matrix(.98 0 0 1 .41 0)" gradientUnits="userSpaceOnUse"><stop offset="0" stop-color="#ededed"/><stop offset="1" stop-color="#ccc"/></radialGradient><radialGradient id="dYTVBHncw_iCrFak8XqMWak" cx="23.93" cy="27.56" r="4.46" gradientTransform="matrix(.99 0 0 1 .34 0)" gradientUnits="userSpaceOnUse"><stop offset="0" stop-color="#e7e7e7"/><stop offset="1" stop-color="#ccc"/></radialGradient><radialGradient id="dYTVBHncw_iCrFak8XqMWal" cx="23.93" cy="27.5" r="4.38" gradientTransform="matrix(.99 0 0 1 .27 0)" gradientUnits="userSpaceOnUse"><stop offset="0" stop-color="#e2e2e2"/><stop offset="1" stop-color="#ccc"/></radialGradient><radialGradient id="dYTVBHncw_iCrFak8XqMWam" cx="23.93" cy="27.45" r="4.3" gradientTransform="matrix(.99 0 0 1 .2 0)" gradientUnits="userSpaceOnUse"><stop offset="0" stop-color="#dcdcdc"/><stop offset="1" stop-color="#ccc"/></radialGradient><radialGradient id="dYTVBHncw_iCrFak8XqMWan" cx="23.93" cy="27.4" r="4.23" gradientTransform="matrix(.99 0 0 1 .14 0)" gradientUnits="userSpaceOnUse"><stop offset="0" stop-color="#d7d7d7"/><stop offset="1" stop-color="#ccc"/></radialGradient><radialGradient id="dYTVBHncw_iCrFak8XqMWat" cx="6.58" cy="35.98" r="2.24" xlink:href="#dYTVBHncw_iCrFak8XqMWn"/><linearGradient id="dYTVBHncw_iCrFak8XqMWD" x1="25.91" x2="20" y1="26.16" y2="26.09" gradientTransform="matrix(-1 0 0 1 35.82 0)" xlink:href="#dYTVBHncw_iCrFak8XqMWe"/><linearGradient id="dYTVBHncw_iCrFak8XqMWap" x1="6.41" x2="8.38" y1="36.32" y2="35.39" xlink:href="#dYTVBHncw_iCrFak8XqMWl"/><linearGradient id="dYTVBHncw_iCrFak8XqMWe" x1="2.84" x2="-3.07" y1="26.23" y2="26.16" gradientTransform="translate(35.23)" gradientUnits="userSpaceOnUse"><stop offset="0" stop-color="#c9901e"/><stop offset=".13" stop-color="#c9901e" stop-opacity=".76"/><stop offset=".28" stop-color="#c9901e" stop-opacity=".53"/><stop offset=".43" stop-color="#c9901e" stop-opacity=".34"/><stop offset=".58" stop-color="#c9901e" stop-opacity=".19"/><stop offset=".73" stop-color="#c9901e" stop-opacity=".08"/><stop offset=".87" stop-color="#c9901e" stop-opacity=".02"/><stop offset="1" stop-color="#c9901e" stop-opacity="0"/></linearGradient><linearGradient id="dYTVBHncw_iCrFak8XqMWl" x1="24.41" x2="26.38" y1="36.32" y2="35.39" gradientTransform="matrix(-1 0 0 1 65.94 0)" gradientUnits="userSpaceOnUse"><stop offset="0" stop-color="#c9901e" stop-opacity=".9"/><stop offset="1" stop-color="#c9901e" stop-opacity="0"/></linearGradient><linearGradient id="dYTVBHncw_iCrFak8XqMWw" x1="23.97" x2="23.97" y1="39.72" y2="36.29" gradientUnits="userSpaceOnUse"><stop offset="0" stop-color="#666"/><stop offset="1" stop-color="#333"/></linearGradient></defs><path fill="url(#dYTVBHncw_iCrFak8XqMWo)" d="M26.24,18.95V15H21.75v4s-1.47.81-1.56.81v4.73h7.67V19.77Z"/><path fill="url(#dYTVBHncw_iCrFak8XqMWp)" d="M26.24,17.13H21.75v1.5a3.88,3.88,0,0,0,4.49,0Z"/><path fill="url(#dYTVBHncw_iCrFak8XqMWq)" d="M26.24,17H21.75v1.5a3.88,3.88,0,0,0,4.49,0Z"/><path fill="url(#dYTVBHncw_iCrFak8XqMWr)" d="M26.24,16.87H21.75v1.5a3.88,3.88,0,0,0,4.49,0Z"/><path fill="url(#dYTVBHncw_iCrFak8XqMWs)" d="M26.24,16.74H21.75v1.5a3.88,3.88,0,0,0,4.49,0Z"/><path fill="url(#dYTVBHncw_iCrFak8XqMWt)" d="M26.24,16.6H21.75v1.5a3.88,3.88,0,0,0,4.49,0Z"/><path fill="url(#dYTVBHncw_iCrFak8XqMWu)" d="M26.24,16.47H21.75V18a3.88,3.88,0,0,0,4.49,0Z"/><path fill="url(#dYTVBHncw_iCrFak8XqMWv)" d="M26.24,16.34H21.75v1.5a3.88,3.88,0,0,0,4.49,0Z"/><path fill="#c9901f" d="M26.24,16.2H21.75v1.5a3.88,3.88,0,0,0,4.49,0Z"/><rect width="11" height="5.39" x="18.47" y="35.72" fill="url(#dYTVBHncw_iCrFak8XqMWw)"/><path fill="url(#dYTVBHncw_iCrFak8XqMWb)" d="M40.65,40.57a5.52,5.52,0,0,0,1.52-.84,2.74,2.74,0,0,0,.95-1.66A2.93,2.93,0,0,0,42,35.45a4,4,0,0,0-2.38-.73c-2.5-.11-5,.61-7.43,1a23.45,23.45,0,0,0-4.62.91,3.89,3.89,0,0,0-1.84,1.25,5,5,0,0,0-.62,1.18A4.6,4.6,0,0,0,24.85,42a2.71,2.71,0,0,0,1.74,1.76,9.61,9.61,0,0,0,4.1,0A40.21,40.21,0,0,0,40.65,40.57Z"/><path fill="url(#dYTVBHncw_iCrFak8XqMWc)" d="M24.94,42a2.69,2.69,0,0,0,1.74,1.75,3.59,3.59,0,0,0,.7.16,19.92,19.92,0,0,0,2.3-.24,31.75,31.75,0,0,0,6.49-1.83c.45-.18.87-.39,1.31-.57a2.48,2.48,0,0,0,1.29-.76,2.24,2.24,0,0,0,.44-1.71,2.63,2.63,0,0,0-1.07-1.7,3.81,3.81,0,0,0-1.84-.64c-2-.22-4,.69-5.88,1.68a16.22,16.22,0,0,1-5.53,2.21A3.56,3.56,0,0,0,24.94,42Z"/><path fill="url(#dYTVBHncw_iCrFak8XqMWl)" d="M38.22,34.74c0,1.55,2.95,2.56,3.8,2.88l1-.6a3,3,0,0,0-1-1.57,4.06,4.06,0,0,0-2.39-.73A12.9,12.9,0,0,0,38.22,34.74Z"/><path fill="url(#dYTVBHncw_iCrFak8XqMWd)" d="M40.6,34.93c-.54.61-1.42.24-2,0q-1.27-.53-2.49-1.19c-.75-.4-1.44-.89-2.18-1.29a4.21,4.21,0,0,1-.65-.43,3.33,3.33,0,0,1-.69-.92c-1.27-2-3.2-4.49-4.26-6.61a5.14,5.14,0,0,1-.6-1.64,2.09,2.09,0,0,1,.39-1.67,2.19,2.19,0,0,1,2.17-.62,3.42,3.42,0,0,1,1.88,1.35,8.17,8.17,0,0,1,1,2.06c.56,1.57,1.48,3.7,2,5.28,0,.09.05.16.08.24a5,5,0,0,1,.68.24c1.94.87,2.75,2.23,4.2,3.79C40.42,33.89,41,34.45,40.6,34.93Z"/><path fill="url(#dYTVBHncw_iCrFak8XqMWe)" d="M35.18,29.47a1.5,1.5,0,0,0-.58.13,2.52,2.52,0,0,0-1.25,1.08,2.15,2.15,0,0,0-.28.92,1.4,1.4,0,0,0,0,.22,4.08,4.08,0,0,1-.52-.75c-1.27-2-3.2-4.49-4.26-6.61a5,5,0,0,1-.58-1.56,9.63,9.63,0,0,1,.21-1,3,3,0,0,1,.41-1,.17.17,0,0,1,.08-.08,2.34,2.34,0,0,1,1.85-.32,3.42,3.42,0,0,1,1.88,1.35,8.17,8.17,0,0,1,1,2.06c.56,1.57,1.48,3.7,2,5.28C35.13,29.31,35.15,29.39,35.18,29.47Z"/><path fill="#d8a11a" d="M28.73,20.67l-.15.1.31,1.59,0,.18c.15.75.3,1.48.39,1.94l.1.47a12.28,12.28,0,0,1,.25,1.68c0,.15,0,0,0,.18s.15.23.21.35l.15.24a4.1,4.1,0,0,1,.26.43l0,0c.15.28.35.45.51.74a2.82,2.82,0,0,0,.2-1.44c0-.17,0-.36,0-.57a16.14,16.14,0,0,0-.37-2.34c-.1-.46-.25-1.24-.4-2-.1-.52-.21-1.06-.3-1.49a2.31,2.31,0,0,0-.65-.18H29l-.12,0Z" opacity=".1"/><path fill="#d59e1a" d="M28.73,20.67l-.12.11.31,1.56,0,.17c.15.73.29,1.45.39,1.91l.09.46a12.77,12.77,0,0,1,.25,1.65c0,.13,0,.06,0,.17s.13.24.19.36l.13.24a3.86,3.86,0,0,1,.23.43v0c.15.28.34.45.5.72a2.84,2.84,0,0,0,.16-1.39c0-.17,0-.35,0-.55a16.36,16.36,0,0,0-.37-2.27c-.09-.44-.23-1.16-.38-1.89-.1-.48-.19-1-.28-1.39a2.78,2.78,0,0,0-.58-.35l-.07,0-.16-.06h0l-.14,0Z" opacity=".2"/><path fill="#d39b1b" d="M28.73,20.67l-.09.11.3,1.53,0,.17c.14.71.28,1.41.38,1.88l.09.45a13.57,13.57,0,0,1,.26,1.61c0,.12,0,.07,0,.17s.11.24.16.36l.1.24a3.65,3.65,0,0,1,.2.43v0c.15.27.34.44.49.71A2.88,2.88,0,0,0,30.83,27c0-.16,0-.34,0-.53a16.68,16.68,0,0,0-.36-2.19c-.09-.41-.22-1.07-.35-1.76-.09-.45-.18-.91-.26-1.3a4.31,4.31,0,0,0-.52-.53l-.07-.06-.14-.12h0l-.15,0Z" opacity=".3"/><path fill="#d0991c" d="M28.73,20.67l-.06.12.3,1.49,0,.16c.14.69.27,1.37.37,1.84l.09.44a14.64,14.64,0,0,1,.26,1.58c0,.1,0,.08,0,.17s.09.24.13.36l.08.24c.06.2.14.25.17.43v0c.14.27.33.44.48.7a3,3,0,0,0,.08-1.3c0-.16,0-.33,0-.51a17.11,17.11,0,0,0-.35-2.11c-.08-.38-.2-1-.33-1.63-.08-.41-.16-.83-.24-1.2a8.26,8.26,0,0,0-.45-.7l-.06-.09-.12-.17h0l-.16,0Z" opacity=".4"/><path fill="#ce961d" d="M28.73,20.67l0,.13c.09.42.19.94.29,1.46l0,.16.36,1.81.09.43c.11.52.22,1,.27,1.55,0,.09,0,.09,0,.17s.07.24.1.37,0,.16.06.24.13.24.15.43v0c.14.27.33.43.47.69a3.09,3.09,0,0,0,0-1.26c0-.16,0-.32,0-.5a17.46,17.46,0,0,0-.35-2c-.07-.36-.18-.91-.3-1.5l-.22-1.11c-.13-.32-.26-.62-.38-.88l0-.11-.11-.23h0l-.17,0A1.5,1.5,0,0,0,28.73,20.67Z" opacity=".5"/><path fill="#cb931d" d="M28.73,20.67s0,.09,0,.14c.09.42.19.92.29,1.43l0,.15.35,1.78.09.42c.1.5.21,1,.28,1.52,0,.07,0,.1,0,.17s0,.25.07.37,0,.16,0,.24c0,.23.12.24.12.43,0,0,0,0,0,0,.13.26.32.43.46.68a3.29,3.29,0,0,0,0-1.22c0-.16,0-.31,0-.48a18.43,18.43,0,0,0-.34-2c-.07-.33-.17-.83-.28-1.37l-.2-1c-.11-.37-.22-.74-.31-1.06l0-.14-.09-.29h0l-.19.05A1.48,1.48,0,0,0,28.73,20.67Z" opacity=".6"/><path fill="#c9901e" d="M28.73,20.67c.1.47.22,1.08.34,1.69.17.84.33,1.67.43,2.16a14.69,14.69,0,0,1,.36,2.27c0,.26.12.23.09.47.13.26.31.42.45.67a3.63,3.63,0,0,0,0-1.17A15.21,15.21,0,0,0,30,24.42c-.1-.49-.27-1.32-.43-2.16-.13-.63-.25-1.26-.35-1.74h0l-.21.06A1.47,1.47,0,0,0,28.73,20.67Z" opacity=".7"/><path fill="url(#dYTVBHncw_iCrFak8XqMWm)" d="M38.88,35.16c.11.73,1.19,1.34,1.7,1.67a5.9,5.9,0,0,0,3.87,1.22A.87.87,0,0,0,45,38a.6.6,0,0,0,.23-.58,1.06,1.06,0,0,0-.56-.71c-.34-.21-.66-.24-.9-.44l-.17-.14.08,0a1.31,1.31,0,0,0,.83-1.17,1.34,1.34,0,0,0-.7-1.21.45.45,0,0,0-.44,0,.61.61,0,0,0,.19-.59c-.2-.69-1.24.26-1.69.3s-1.47-.1-2,.46A1,1,0,0,0,38.88,35.16Zm4.64-.3a.34.34,0,0,1-.24.28.33.33,0,0,1-.19,0,1.25,1.25,0,0,1-.31-.12c-.2-.11-.61-.33-.89-.52,0-.2.54-.27.81-.38a1.94,1.94,0,0,0,.48-.28l0,0a.45.45,0,0,0,.18.61h0A.42.42,0,0,1,43.51,34.86Z"/><path fill="url(#dYTVBHncw_iCrFak8XqMWa)" d="M40.52,35.66c.38.45,2.34,2.4,4.56,1.47a1.27,1.27,0,0,0-.48-.45c-.35-.22-.66-.24-.91-.44l-.16-.14a5,5,0,0,0-1-.48c-.46-.14-.43-.33-.68-1.1a1.58,1.58,0,0,0-1.47-.14C39.84,34.87,40.09,35.13,40.52,35.66Z"/><path fill="url(#dYTVBHncw_iCrFak8XqMWx)" d="M44.33,34.41l.06-.06,0,0Z"/><path fill="url(#dYTVBHncw_iCrFak8XqMWn)" d="M41.88,34.55v0l.17.11c.17.56.21.74.61.87a5.38,5.38,0,0,1,1,.49l.07.06-.07,0-.09,0,0,0a5.38,5.38,0,0,0-1-.49C42.11,35.45,42.11,35.27,41.88,34.55Z"/><path fill="url(#dYTVBHncw_iCrFak8XqMWf)" d="M22.83,42.08a.64.64,0,0,0,0,.14,1.42,1.42,0,0,0,.8,1.11,7.48,7.48,0,0,0,1.85.65h0a21.28,21.28,0,0,0,5.17-.22,31.75,31.75,0,0,0,6.49-1.83c.45-.18.87-.39,1.31-.57a2.48,2.48,0,0,0,1.29-.76,2.24,2.24,0,0,0,.44-1.71,2.63,2.63,0,0,0-1.07-1.7,3.81,3.81,0,0,0-1.84-.64c-2-.22-4,.69-5.88,1.68s-3.69,2.06-5.73,2.25h0a6.79,6.79,0,0,0-1.82.26A1.6,1.6,0,0,0,22.83,42.08Z"/><path fill="url(#dYTVBHncw_iCrFak8XqMWy)" d="M7.34,40.57a5.52,5.52,0,0,1-1.52-.84,2.74,2.74,0,0,1-.95-1.66,2.93,2.93,0,0,1,1.07-2.62,4,4,0,0,1,2.38-.73c2.5-.11,5,.61,7.43,1a23.45,23.45,0,0,1,4.62.91,3.89,3.89,0,0,1,1.84,1.25,5,5,0,0,1,.62,1.18A4.6,4.6,0,0,1,23.14,42a2.71,2.71,0,0,1-1.74,1.76,9.61,9.61,0,0,1-4.1,0A40.21,40.21,0,0,1,7.34,40.57Z"/><path fill="url(#dYTVBHncw_iCrFak8XqMWz)" d="M23.14,42a2.69,2.69,0,0,1-1.74,1.75,3.59,3.59,0,0,1-.7.16,12.6,12.6,0,0,1-3.4-.15,40.3,40.3,0,0,1-10-3.19,5.49,5.49,0,0,1-1.52-.84,2.7,2.7,0,0,1-.95-1.65,2.93,2.93,0,0,1,1.06-2.62,4.12,4.12,0,0,1,2.39-.73c2.5-.11,5,.61,7.43,1a22.92,22.92,0,0,1,4.63.91,3.77,3.77,0,0,1,1.84,1.25,4.8,4.8,0,0,1,.62,1.18,6.81,6.81,0,0,1,.37,1.3A3.56,3.56,0,0,1,23.14,42Z"/><path fill="url(#dYTVBHncw_iCrFak8XqMWA)" d="M23.14,42a2.67,2.67,0,0,1-1.74,1.75,3.16,3.16,0,0,1-.69.17,12.94,12.94,0,0,1-3.41-.15,40.59,40.59,0,0,1-10-3.19,5.32,5.32,0,0,1-1.52-.85,2.72,2.72,0,0,1-1-1.65A2.33,2.33,0,0,1,4.94,37a3,3,0,0,1,1-1.57,4.06,4.06,0,0,1,2.39-.73,12.9,12.9,0,0,1,1.39,0c2,.13,4,.66,6,1a22.63,22.63,0,0,1,4.62.91,3.69,3.69,0,0,1,1.84,1.25A4.76,4.76,0,0,1,22.85,39a8.18,8.18,0,0,1,.37,1.31A3.59,3.59,0,0,1,23.14,42Z"/><path fill="url(#dYTVBHncw_iCrFak8XqMWB)" d="M23.14,42a2.69,2.69,0,0,1-1.74,1.75,3.59,3.59,0,0,1-.7.16,19.92,19.92,0,0,1-2.3-.24,31.75,31.75,0,0,1-6.49-1.83c-.45-.18-.87-.39-1.31-.57a2.48,2.48,0,0,1-1.29-.76,2.24,2.24,0,0,1-.44-1.71A2.63,2.63,0,0,1,10,37.1a3.81,3.81,0,0,1,1.84-.64c2-.22,4,.69,5.88,1.68a16.22,16.22,0,0,0,5.53,2.21A3.56,3.56,0,0,1,23.14,42Z"/><path fill="#c9901e" d="M29,41.75a4.25,4.25,0,0,1,2.62-.17.48.48,0,0,1,.32.31.52.52,0,0,1,0,.35l0,.07a.58.58,0,0,1-.63.24,3.14,3.14,0,0,0-1.71.09l-.29.1a12,12,0,0,0-1.33.58l-.08,0-.69.33c-.23.1-.48.21-.75.3h-.88l-.19,0h0a6.5,6.5,0,0,1-.92-.28l-.17-.1a.51.51,0,0,1,.09-.11.6.6,0,0,1,.39-.15,5.11,5.11,0,0,0,1.92-.51l.14-.06.6-.28.07,0A13.21,13.21,0,0,1,29,41.75Z" opacity=".07"/><path fill="#c9901e" d="M29,41.77a4.22,4.22,0,0,1,2.61-.17.43.43,0,0,1,.29.32.45.45,0,0,1-.05.32l0,.06a.68.68,0,0,1-.63.18,3.27,3.27,0,0,0-1.68.12l-.29.1a12.1,12.1,0,0,0-1.31.57l-.08,0-.68.33c-.23.1-.47.2-.74.3l-.87,0h-.2a6.5,6.5,0,0,1-.92-.28l-.12-.11a.43.43,0,0,1,.1-.1.74.74,0,0,1,.4-.13,5.24,5.24,0,0,0,1.9-.51l.14-.06.59-.28.07,0A13.21,13.21,0,0,1,29,41.77Z" opacity=".14"/><path fill="#c9901e" d="M29,41.79a4.2,4.2,0,0,1,2.59-.17.38.38,0,0,1,.18.62l-.05,0a.87.87,0,0,1-.64.13,3.4,3.4,0,0,0-1.65.15l-.28.1a12.4,12.4,0,0,0-1.29.57l-.07,0-.67.32c-.22.1-.47.2-.73.3s-.56.06-.87.08h-.2a6.5,6.5,0,0,1-.92-.28.7.7,0,0,1-.07-.12.36.36,0,0,1,.1-.08,1,1,0,0,1,.41-.11,5.36,5.36,0,0,0,1.87-.52l.13-.06.58-.28.07,0A13.41,13.41,0,0,1,29,41.79Z" opacity=".21"/><path fill="#c9901e" d="M29,41.82a4.16,4.16,0,0,1,2.57-.17.35.35,0,0,1,.25.32.34.34,0,0,1-.13.27l-.06,0a1.31,1.31,0,0,1-.64.07,3.56,3.56,0,0,0-1.62.17l-.28.1a12.74,12.74,0,0,0-1.27.56l-.07,0-.66.32c-.22.09-.46.2-.72.29s-.56.09-.86.12h-.2a6.5,6.5,0,0,1-.92-.28.27.27,0,0,1,0-.14.32.32,0,0,1,.11-.07,1.46,1.46,0,0,1,.41-.09,5.51,5.51,0,0,0,1.84-.53l.13-.06.58-.27.07,0A13.12,13.12,0,0,1,29,41.82Z" opacity=".29"/><path fill="#c9901e" d="M29,41.84a4.13,4.13,0,0,1,2.55-.17.32.32,0,0,1,.23.33.3.3,0,0,1-.17.25l-.06,0a2.84,2.84,0,0,1-.64,0,3.75,3.75,0,0,0-1.6.2l-.27.1a13,13,0,0,0-1.25.55l-.07,0-.65.31c-.22.09-.46.2-.71.29a7.66,7.66,0,0,1-.85.16l-.19,0h0a6.5,6.5,0,0,1-.92-.28.2.2,0,0,1,0-.15.29.29,0,0,1,.12-.06,2.89,2.89,0,0,1,.42-.07,5.68,5.68,0,0,0,1.82-.54l.13-.06.57-.27.07,0A12.93,12.93,0,0,1,29,41.84Z" opacity=".36"/><path fill="#c9901e" d="M29,41.86a4.1,4.1,0,0,1,2.53-.17.3.3,0,0,1,.2.33.28.28,0,0,1-.21.22h-.07l-.65,0a4,4,0,0,0-1.57.23l-.27.1c-.42.16-.83.35-1.23.55l-.07,0-.64.31-.7.29a6.73,6.73,0,0,1-.85.21l-.19,0h0a6.5,6.5,0,0,1-.92-.28.21.21,0,0,1,.07-.16.27.27,0,0,1,.12,0l.42,0a5.87,5.87,0,0,0,1.79-.55l.13-.06.56-.27.07,0A12.74,12.74,0,0,1,29,41.86Z" opacity=".43"/><path fill="#c9901e" d="M31.74,42.06a.26.26,0,0,1-.33.19,3.69,3.69,0,0,0-2.19.16,14.5,14.5,0,0,0-1.46.64l-.7.34a7.54,7.54,0,0,1-1.73.57h0a6.5,6.5,0,0,1-.92-.28.25.25,0,0,1,.25-.21,5.47,5.47,0,0,0,2.19-.58l.68-.33a13.68,13.68,0,0,1,1.52-.67,4.19,4.19,0,0,1,2.51-.16A.28.28,0,0,1,31.74,42.06Z" opacity=".5"/><path fill="url(#dYTVBHncw_iCrFak8XqMWC)" d="M7.39,34.87c.54.61,1.42.24,2,0q1.27-.53,2.49-1.19c.75-.4,1.44-.89,2.18-1.29a4.21,4.21,0,0,0,.65-.43,3.33,3.33,0,0,0,.69-.92c1.27-2,3.2-4.49,4.26-6.61a5.14,5.14,0,0,0,.6-1.64,2.09,2.09,0,0,0-.39-1.67,2.19,2.19,0,0,0-2.17-.62,3.42,3.42,0,0,0-1.88,1.35,8.17,8.17,0,0,0-1,2.06c-.56,1.57-1.48,3.7-2,5.28,0,.09-.05.16-.08.24a5,5,0,0,0-.68.24c-1.94.87-2.75,2.23-4.2,3.79C7.56,33.82,7,34.38,7.39,34.87Z"/><path fill="url(#dYTVBHncw_iCrFak8XqMWD)" d="M12.8,29.4a1.5,1.5,0,0,1,.58.13,2.52,2.52,0,0,1,1.25,1.08,2.15,2.15,0,0,1,.28.92,1.4,1.4,0,0,1,0,.22,4.08,4.08,0,0,0,.52-.75c1.27-2,3.2-4.49,4.26-6.61a5,5,0,0,0,.58-1.56,9.63,9.63,0,0,0-.21-1,3,3,0,0,0-.41-1,.17.17,0,0,0-.08-.08,2.34,2.34,0,0,0-1.85-.32,3.42,3.42,0,0,0-1.88,1.35,8.17,8.17,0,0,0-1,2.06c-.56,1.57-1.48,3.7-2,5.28C12.85,29.25,12.83,29.32,12.8,29.4Z"/><path fill="#d8a11a" d="M18,20.68a2.31,2.31,0,0,1,.65-.18H19l.12,0,.17.07.15.1-.31,1.59,0,.18c-.15.75-.3,1.48-.39,1.94l-.1.47a12.28,12.28,0,0,0-.25,1.68c0,.15,0,0,0,.18s-.15.23-.21.35l-.15.24a4.1,4.1,0,0,0-.26.43l0,0c-.15.28-.35.45-.51.74a2.82,2.82,0,0,1-.2-1.44c0-.17,0-.36,0-.57a16.14,16.14,0,0,1,.37-2.34c.1-.46.25-1.24.4-2C17.83,21.65,17.93,21.11,18,20.68Z" opacity=".1"/><path fill="#d59e1a" d="M18.09,20.93a2.78,2.78,0,0,1,.58-.35l.07,0,.16-.06h0l.14,0,.19.08.12.11-.31,1.56,0,.17c-.15.73-.29,1.45-.39,1.91l-.09.46a12.77,12.77,0,0,0-.25,1.65c0,.13,0,.06,0,.17s-.13.24-.19.36l-.13.24a3.86,3.86,0,0,0-.23.43v0c-.15.28-.34.45-.5.72A2.84,2.84,0,0,1,17,27c0-.17,0-.35,0-.55a16.36,16.36,0,0,1,.37-2.27c.09-.44.23-1.16.38-1.89C17.91,21.84,18,21.34,18.09,20.93Z" opacity=".2"/><path fill="#d39b1b" d="M18.16,21.18a4.31,4.31,0,0,1,.52-.53l.07-.06.14-.12h0l.15,0,.21.08.09.11L19,22.24l0,.17c-.14.71-.28,1.41-.38,1.88l-.09.45a13.57,13.57,0,0,0-.26,1.61c0,.12,0,.07,0,.17s-.11.24-.16.36l-.1.24a3.65,3.65,0,0,0-.2.43v0c-.15.27-.34.44-.49.71A2.88,2.88,0,0,1,17.15,27c0-.16,0-.34,0-.53a16.68,16.68,0,0,1,.36-2.19c.09-.41.22-1.07.35-1.76C18,22,18.08,21.58,18.16,21.18Z" opacity=".3"/><path fill="#d0991c" d="M18.23,21.44a8.26,8.26,0,0,1,.45-.7l.06-.09.12-.17h0l.16,0,.22.09.06.12L19,22.22l0,.16c-.14.69-.27,1.37-.37,1.84l-.09.44a14.64,14.64,0,0,0-.26,1.58c0,.1,0,.08,0,.17s-.09.24-.13.36L18,27c-.06.2-.14.25-.17.43v0c-.14.27-.33.44-.48.7a3,3,0,0,1-.08-1.3c0-.16,0-.33,0-.51a17.11,17.11,0,0,1,.35-2.11c.08-.38.2-1,.33-1.63C18.07,22.23,18.15,21.81,18.23,21.44Z" opacity=".4"/><path fill="#ce961d" d="M18.29,21.69c.13-.32.26-.62.38-.88l0-.11.11-.23h0l.17,0a1.5,1.5,0,0,1,.24.09l0,.13c-.09.42-.19.94-.29,1.46l0,.16-.36,1.81-.09.43c-.11.52-.22,1-.27,1.55,0,.09,0,.09,0,.17s-.07.24-.1.37,0,.16-.06.24-.13.24-.15.43v0c-.14.27-.33.43-.47.69a3.09,3.09,0,0,1,0-1.26c0-.16,0-.32,0-.5a17.46,17.46,0,0,1,.35-2c.07-.36.18-.91.3-1.5Z" opacity=".5"/><path fill="#cb931d" d="M18.36,21.94c.11-.37.22-.74.31-1.06l0-.14.09-.29h0l.19.05a1.48,1.48,0,0,1,.25.1s0,.09,0,.14c-.09.42-.19.92-.29,1.43l0,.15-.35,1.78-.09.42c-.1.5-.21,1-.28,1.52,0,.07,0,.1,0,.17s0,.25-.07.37,0,.16,0,.24c0,.23-.12.24-.12.43,0,0,0,0,0,0-.13.26-.32.43-.46.68a3.29,3.29,0,0,1,0-1.22c0-.16,0-.31,0-.48a18.43,18.43,0,0,1,.34-2c.07-.33.17-.83.28-1.37Z" opacity=".6"/><path fill="#c9901e" d="M19.25,20.6c-.1.47-.22,1.08-.34,1.69-.17.84-.33,1.67-.43,2.16a14.69,14.69,0,0,0-.36,2.27c0,.26-.12.23-.09.47-.13.26-.31.42-.45.67a3.63,3.63,0,0,1,0-1.17A15.21,15.21,0,0,1,18,24.35c.1-.49.27-1.32.43-2.16.13-.63.25-1.26.35-1.74h0l.21.06A1.47,1.47,0,0,1,19.25,20.6Z" opacity=".7"/><path fill="url(#dYTVBHncw_iCrFak8XqMWE)" d="M25.16,42.08a.64.64,0,0,1,0,.14,1.42,1.42,0,0,1-.8,1.11,7.48,7.48,0,0,1-1.85.65h0a21.28,21.28,0,0,1-5.17-.22,31.75,31.75,0,0,1-6.49-1.83c-.45-.18-.87-.39-1.31-.57a2.48,2.48,0,0,1-1.29-.76,2.24,2.24,0,0,1-.44-1.71,2.63,2.63,0,0,1,1.07-1.7,3.81,3.81,0,0,1,1.84-.64c2-.22,4,.69,5.88,1.68s3.69,2.06,5.73,2.25h0a6.79,6.79,0,0,1,1.82.26A1.6,1.6,0,0,1,25.16,42.08Z"/><path fill="url(#dYTVBHncw_iCrFak8XqMWF)" d="M32.14,41.75a.36.36,0,0,1-.09.12.56.56,0,0,1-.32.14,1.59,1.59,0,0,1-.51,0,8.38,8.38,0,0,0-4.17.72,14.88,14.88,0,0,1-4,1.23,5.54,5.54,0,0,1-.55.05c-.28,0-.4-.2-.61-.32a1.17,1.17,0,0,1-.53-1.06,3.39,3.39,0,0,1,0-.44,3.49,3.49,0,0,1,.56-1.44,5.74,5.74,0,0,1,.61-.8A2.07,2.07,0,0,1,24,39.2c.72,0,1.33.54,2,.8a4.8,4.8,0,0,0,2,.23,12.33,12.33,0,0,1,2.05,0,2.85,2.85,0,0,1,1.84.83A.68.68,0,0,1,32.14,41.75Z"/><path fill="url(#dYTVBHncw_iCrFak8XqMWk)" d="M30.31,27.12a1.67,1.67,0,0,0,0-.4c-.19-1.46-1-6.25-1-6.25l-1.69-.81v.78a3.63,3.63,0,1,1-7.26,0v-.78l-1.73.76s-.9,4.7-1.09,6.16a1.67,1.67,0,0,0,0,.4c.48,4.34.11,4.61-.38,9a20.22,20.22,0,0,0,13.55,0C30.24,31.6,29.84,31.46,30.31,27.12Z"/><path fill="url(#dYTVBHncw_iCrFak8XqMWg)" d="M29.26,13s-.38,1.55.33,2.09.1.6-.08.62a1.61,1.61,0,0,1-.7-.09,1.23,1.23,0,0,0,.45.6c.28.21,0,.38-.2.35a1.78,1.78,0,0,1-.71-.26.86.86,0,0,0,.18.41c.07.1,0,.3-.28.23a1.33,1.33,0,0,1-.51-.34c0,.12-.09.34-.2.34-.29,0-.56-.3-.66-.42L29,12.9Z"/><path fill="url(#dYTVBHncw_iCrFak8XqMWG)" d="M18.73,13s.38,1.55-.33,2.09-.1.6.08.62a1.61,1.61,0,0,0,.7-.09,1.23,1.23,0,0,1-.45.6c-.28.21,0,.38.2.35a1.78,1.78,0,0,0,.71-.26.86.86,0,0,1-.18.41c-.07.1,0,.3.28.23a1.33,1.33,0,0,0,.51-.34c0,.12.09.34.2.34.29,0,.56-.3.66-.42L19,12.9Z"/><path fill="url(#dYTVBHncw_iCrFak8XqMWh)" d="M28.51,11.75a.86.86,0,0,1,1.13.86,2.12,2.12,0,0,1-.49,1.6c-.33.41-.93.41-.88.08S28.51,11.75,28.51,11.75Z"/><path fill="url(#dYTVBHncw_iCrFak8XqMWH)" d="M19.34,11.75a.86.86,0,0,0-1.12.86,2.13,2.13,0,0,0,.49,1.6c.33.41.92.41.87.08S19.34,11.75,19.34,11.75Z"/><path fill="url(#dYTVBHncw_iCrFak8XqMWI)" d="M29.1,11.8A7.24,7.24,0,0,1,28.37,15c-.89,1.82-2.53,3.38-4.4,3.38s-3.5-1.56-4.4-3.38a7.24,7.24,0,0,1-.72-3.19c0-.26,0-.5,0-.73A6.85,6.85,0,0,1,19.71,8,4.62,4.62,0,0,1,24,5.58,4.61,4.61,0,0,1,28.22,8,7.36,7.36,0,0,1,29.1,11.8Z"/><path fill="url(#dYTVBHncw_iCrFak8XqMWJ)" d="M23.93,14.52a1.7,1.7,0,0,1-.82-.19c-.13-.07-.26,0-.18.19a1.06,1.06,0,0,0,2,0c.09-.24,0-.26-.15-.21A1.87,1.87,0,0,1,23.93,14.52Z"/><ellipse cx="23.93" cy="13.93" fill="url(#dYTVBHncw_iCrFak8XqMWK)" rx=".64" ry="1.11" transform="rotate(-88.61 23.926 13.93)"/><ellipse cx="23.93" cy="13.93" fill="url(#dYTVBHncw_iCrFak8XqMWL)" rx=".57" ry=".32"/><path d="M27.73,9.26A1.72,1.72,0,0,0,25,9.11a1.59,1.59,0,0,1-2.2-.06c-.8-.79-1.41-.71-2-.35a4.27,4.27,0,0,0-1.66,5v-.1l0,.13A5,5,0,0,1,20.91,9.3C21.34,9,22,9,22.65,9.6a1.87,1.87,0,0,0,2.61,0,1.3,1.3,0,0,1,2,0,4.85,4.85,0,0,1,1.48,3.58c0,.17,0,.34,0,.51A4.9,4.9,0,0,0,27.73,9.26Z" opacity=".1"/><path d="M27.73,9.15A1.72,1.72,0,0,0,25,9a1.59,1.59,0,0,1-2.2-.06c-.8-.79-1.41-.71-2-.35a4.27,4.27,0,0,0-1.66,5v-.1l0,.13c0-1.26-.13-2.91,1.74-4.43.42-.34,1.07-.32,1.74.3a1.87,1.87,0,0,0,2.61,0,1.3,1.3,0,0,1,2,0,4.85,4.85,0,0,1,1.48,3.58c0,.17,0,.34,0,.51A4.9,4.9,0,0,0,27.73,9.15Z" opacity=".1"/><path d="M27.73,9A1.72,1.72,0,0,0,25,8.9a1.59,1.59,0,0,1-2.2-.06c-.8-.79-1.41-.71-2-.35a4.27,4.27,0,0,0-1.66,5v-.1l0,.13c0-1.26-.13-2.91,1.74-4.43.42-.34,1.07-.32,1.74.3a1.87,1.87,0,0,0,2.61,0,1.3,1.3,0,0,1,2,0A4.85,4.85,0,0,1,28.76,13c0,.17,0,.34,0,.51A4.9,4.9,0,0,0,27.73,9Z" opacity=".1"/><path d="M27.73,8.94A1.72,1.72,0,0,0,25,8.79a1.59,1.59,0,0,1-2.2-.06c-.8-.79-1.41-.71-2-.35a4.27,4.27,0,0,0-1.66,5v-.1l0,.13A5,5,0,0,1,20.91,9c.43-.34,1.07-.32,1.74.3a1.87,1.87,0,0,0,2.61,0,1.3,1.3,0,0,1,2,0,4.85,4.85,0,0,1,1.48,3.58c0,.17,0,.34,0,.51A4.9,4.9,0,0,0,27.73,8.94Z" opacity=".1"/><path fill="url(#dYTVBHncw_iCrFak8XqMWi)" d="M29.35,8.72a.64.64,0,0,0,.2-.52,2.82,2.82,0,0,0-2-2.57l-.19-.06c.16-.34.06-.67-.44-.64-1.43.08-1-.63-2.39-.35a1.6,1.6,0,0,0-.49.15,2.69,2.69,0,0,0-2.77.39,2.68,2.68,0,0,1-1.37.32.38.38,0,0,0-.2.71,3.2,3.2,0,0,0-1.33,1.34c-.1.24.07.51.29.42a1.26,1.26,0,0,0-.26.83c-.62,1.42,0,4,.85,5.16a5.16,5.16,0,0,1,0-3.08c1.17-3.25,3.23-2.25,3.35-2.1A1.64,1.64,0,0,0,25.08,9c.11-.07,2.13-1.86,3.42,1.65a8.88,8.88,0,0,1,.16,3.19C29.51,12.65,29.49,9.33,29.35,8.72Z"/><path fill="url(#dYTVBHncw_iCrFak8XqMWM)" d="M28.73,13.44a5.42,5.42,0,0,0,.3-3.17,3.89,3.89,0,0,0-2.72-3,1.37,1.37,0,0,0-1.39.23,1.37,1.37,0,0,1-2,0c-.36-.41-.86-.27-1.29-.15a4.24,4.24,0,0,0-2.84,2.93,4.71,4.71,0,0,0-.1,1.45,7.36,7.36,0,0,0,.55,2.15l0,0a4.66,4.66,0,0,1,0-3.08c.8-1.8,1.61-2.3,2.27-2.31a2.07,2.07,0,0,1,1.33.61,1.78,1.78,0,0,0,2.13,0,2.43,2.43,0,0,1,1.26-.66c.68-.08,1.52.33,2.2,2.21a6.72,6.72,0,0,1,.2,2.84Z"/><path fill="url(#dYTVBHncw_iCrFak8XqMWN)" d="M21.49,7.49a4.21,4.21,0,0,0-2.69,2.84,4.7,4.7,0,0,0-.09,1.42,7.34,7.34,0,0,0,.53,2.11l0,0a7.09,7.09,0,0,1-.2-2.11,3.1,3.1,0,0,1,.25-.95,7.92,7.92,0,0,1,.46-.91c.62-1,1.24-1.37,1.78-1.4a2,2,0,0,1,1.32.57,1.65,1.65,0,0,0,.63.32A2.09,2.09,0,0,0,25,9.15a2.74,2.74,0,0,1,1.25-.65h.26c.61,0,1.27.44,1.86,1.84l.1.25a5.6,5.6,0,0,1,.3,1.88,8.47,8.47,0,0,1,0,.92l0,0a4,4,0,0,0,.39-1.85,5.66,5.66,0,0,0-.1-1.07,4.39,4.39,0,0,0-.3-.92,3.93,3.93,0,0,0-2.32-2.1,1.34,1.34,0,0,0-1.46.2l-.11.1A1.36,1.36,0,0,1,23.6,8a1.84,1.84,0,0,1-.78-.43.78.78,0,0,0-.31-.19A1.66,1.66,0,0,0,21.49,7.49Z"/><path fill="url(#dYTVBHncw_iCrFak8XqMWO)" d="M21.35,7.64a4.16,4.16,0,0,0-2.54,2.75,4.66,4.66,0,0,0-.09,1.39,7.33,7.33,0,0,0,.51,2.07l0,0a7,7,0,0,1-.19-2.09,3.16,3.16,0,0,1,.24-.94,7.7,7.7,0,0,1,.45-.9,2.45,2.45,0,0,1,1.75-1.41,2,2,0,0,1,1.31.53,1.84,1.84,0,0,0,.62.32,2.14,2.14,0,0,0,1.45-.21,3.16,3.16,0,0,1,1.24-.63l.25,0c.62,0,1.28.37,1.88,1.72l.1.25a5.46,5.46,0,0,1,.34,1.86,8.28,8.28,0,0,1,0,.91l0,0a3.18,3.18,0,0,0,.36-1.6A6,6,0,0,0,29,10.56a4.31,4.31,0,0,0-.28-.92,4.05,4.05,0,0,0-2.24-2.13A1.33,1.33,0,0,0,25,7.67l-.12.1A1.32,1.32,0,0,1,23.55,8a2.92,2.92,0,0,1-.83-.44.79.79,0,0,0-.33-.16A1.8,1.8,0,0,0,21.35,7.64Z"/><path fill="url(#dYTVBHncw_iCrFak8XqMWP)" d="M21.21,7.8a4.1,4.1,0,0,0-2.39,2.67,4.65,4.65,0,0,0-.08,1.36,7.32,7.32,0,0,0,.5,2l0,0a6.85,6.85,0,0,1-.18-2.07,3.22,3.22,0,0,1,.24-.93,7.33,7.33,0,0,1,.44-.9,2.53,2.53,0,0,1,1.72-1.42,1.93,1.93,0,0,1,1.31.49,2.08,2.08,0,0,0,.61.33,2.15,2.15,0,0,0,1.43-.16,3.74,3.74,0,0,1,1.24-.61l.25,0c.64-.06,1.29.29,1.9,1.61l.11.24a5.31,5.31,0,0,1,.38,1.83,8,8,0,0,1,0,.9l0,0a2.42,2.42,0,0,0,.34-1.36,6.35,6.35,0,0,0-.07-1,4.26,4.26,0,0,0-.27-.91,4.17,4.17,0,0,0-2.16-2.17A1.33,1.33,0,0,0,25,7.76l-.12.11a1.3,1.3,0,0,1-1.35.22,5.86,5.86,0,0,1-.87-.45.82.82,0,0,0-.35-.13A2,2,0,0,0,21.21,7.8Z"/><path fill="url(#dYTVBHncw_iCrFak8XqMWQ)" d="M21.07,8a4,4,0,0,0-2.24,2.58,4.63,4.63,0,0,0-.07,1.33,7.32,7.32,0,0,0,.48,2l0,0a6.73,6.73,0,0,1-.17-2.06,3.3,3.3,0,0,1,.23-.92,7.07,7.07,0,0,1,.43-.89,2.62,2.62,0,0,1,1.69-1.43,1.86,1.86,0,0,1,1.3.45,2.4,2.4,0,0,0,.6.33,2.13,2.13,0,0,0,1.42-.11A4.64,4.64,0,0,1,26,8.66l.25,0c.66-.1,1.3.22,1.92,1.49l.11.23a5.18,5.18,0,0,1,.41,1.8,7.72,7.72,0,0,1,0,.89l0,0A1.75,1.75,0,0,0,29,11.89a6.65,6.65,0,0,0-.06-1,4.15,4.15,0,0,0-2.33-3.12,1.32,1.32,0,0,0-1.65.1L24.86,8a1.29,1.29,0,0,1-1.41.2c-.34-.18-.65-.31-.92-.46a.86.86,0,0,0-.36-.1A2.17,2.17,0,0,0,21.07,8Z"/><path fill="url(#dYTVBHncw_iCrFak8XqMWR)" d="M20.93,8.12a4,4,0,0,0-2.09,2.49,4.63,4.63,0,0,0-.06,1.3,7.32,7.32,0,0,0,.46,1.94v0a6.67,6.67,0,0,1-.16-2,3.37,3.37,0,0,1,.23-.91,6.7,6.7,0,0,1,.42-.88A2.72,2.72,0,0,1,21.4,8.61,1.8,1.8,0,0,1,22.69,9a2.83,2.83,0,0,0,.59.33,2.1,2.1,0,0,0,1.4-.06,6.14,6.14,0,0,1,1.23-.58l.25-.05c.68-.14,1.31.15,1.94,1.38l.11.23A5.05,5.05,0,0,1,28.65,12a7.45,7.45,0,0,1,0,.88l0,0A1.18,1.18,0,0,0,29,12a6.91,6.91,0,0,0,0-1,4.26,4.26,0,0,0-.23-.9,4.39,4.39,0,0,0-2-2.25A1.33,1.33,0,0,0,25,7.92L24.87,8a1.29,1.29,0,0,1-1.47.17,10,10,0,0,0-1-.47.91.91,0,0,0-.38-.07A2.38,2.38,0,0,0,20.93,8.12Z"/><path fill="url(#dYTVBHncw_iCrFak8XqMWS)" d="M20.79,8.28a3.89,3.89,0,0,0-1.95,2.4A4.62,4.62,0,0,0,18.78,12a7.34,7.34,0,0,0,.45,1.9v0a6.57,6.57,0,0,1-.16-2,3.46,3.46,0,0,1,.22-.9,6.44,6.44,0,0,1,.41-.88,2.82,2.82,0,0,1,1.64-1.44A1.73,1.73,0,0,1,22.64,9a3.42,3.42,0,0,0,.58.34,2,2,0,0,0,1.38,0,9.21,9.21,0,0,1,1.22-.56l.24-.06c.69-.19,1.32.08,2,1.26l.12.22a4.94,4.94,0,0,1,.49,1.75,7.19,7.19,0,0,1,0,.87h0a.72.72,0,0,0,.27-.62,7.09,7.09,0,0,0,0-1,4.29,4.29,0,0,0-.21-.9A4.49,4.49,0,0,0,26.81,8,1.34,1.34,0,0,0,25,8l-.14.12a1.3,1.3,0,0,1-1.53.15,4.89,4.89,0,0,0-1-.48,1,1,0,0,0-.4,0A2.62,2.62,0,0,0,20.79,8.28Z"/><path fill="url(#dYTVBHncw_iCrFak8XqMWT)" d="M20.65,8.43a3.82,3.82,0,0,0-1.8,2.32A4.63,4.63,0,0,0,18.8,12a7.37,7.37,0,0,0,.43,1.86v0a6.48,6.48,0,0,1-.15-2,3.55,3.55,0,0,1,.21-.89,6.2,6.2,0,0,1,.4-.87,2.93,2.93,0,0,1,1.61-1.45A1.65,1.65,0,0,1,22.6,9a4.4,4.4,0,0,0,.57.34,2,2,0,0,0,1.36,0c.19,0,.67-.38,1.21-.55L26,8.75c.71-.23,1.33,0,2,1.14l.12.21a4.84,4.84,0,0,1,.53,1.72,6.93,6.93,0,0,1,.06.86h0c.23-.16.29-.32.24-.37a7.18,7.18,0,0,0,0-1,4.35,4.35,0,0,0-.19-.9,4.58,4.58,0,0,0-1.84-2.32,1.35,1.35,0,0,0-1.85,0l-.15.13a1.31,1.31,0,0,1-1.59.12,3.41,3.41,0,0,0-1.05-.49,1,1,0,0,0-.42,0A2.85,2.85,0,0,0,20.65,8.43Z"/><path fill="url(#dYTVBHncw_iCrFak8XqMWU)" d="M20.51,8.59a3.74,3.74,0,0,0-1.65,2.23,4.64,4.64,0,0,0,0,1.21,7.41,7.41,0,0,0,.42,1.82v0a6.39,6.39,0,0,1-.14-2,3.66,3.66,0,0,1,.21-.88,6,6,0,0,1,.4-.87,3,3,0,0,1,1.58-1.46A1.57,1.57,0,0,1,22.55,9a6.2,6.2,0,0,0,.56.34,2,2,0,0,0,1.34.1c.21,0,.68-.35,1.21-.53l.24-.08c.73-.28,1.33-.07,2,1L28,10a4.76,4.76,0,0,1,.57,1.69,6.67,6.67,0,0,1,.08.85h0c.21-.08.27-.16.22-.12a7.17,7.17,0,0,0,0-1,4.43,4.43,0,0,0-.18-.89A4.66,4.66,0,0,0,27,8.19a1.36,1.36,0,0,0-1.92,0l-.15.13a1.32,1.32,0,0,1-1.65.1,2.72,2.72,0,0,0-1.1-.5,1.13,1.13,0,0,0-.44,0A3.09,3.09,0,0,0,20.51,8.59Z"/><path fill="url(#dYTVBHncw_iCrFak8XqMWV)" d="M20.37,8.75a3.66,3.66,0,0,0-1.5,2.14,4.66,4.66,0,0,0,0,1.18,7.46,7.46,0,0,0,.4,1.78h0a6.3,6.3,0,0,1-.13-2,3.77,3.77,0,0,1,.2-.87,5.74,5.74,0,0,1,.39-.86A3.17,3.17,0,0,1,21.25,8.7a1.5,1.5,0,0,1,1.26.25l.55.35a1.92,1.92,0,0,0,1.32.15c.23,0,.69-.32,1.2-.51l.23-.09c.75-.32,1.34-.14,2,.91l.12.2a4.68,4.68,0,0,1,.61,1.66,6.43,6.43,0,0,1,.09.84h0c.2,0,.25,0,.2.12a7.05,7.05,0,0,0,0-1,4.54,4.54,0,0,0-.16-.89,4.71,4.71,0,0,0-1.68-2.4,1.38,1.38,0,0,0-2,0l-.16.14a1.34,1.34,0,0,1-1.71.07A2.33,2.33,0,0,0,22.06,8,1.21,1.21,0,0,0,21.6,8,3.31,3.31,0,0,0,20.37,8.75Z"/><path fill="url(#dYTVBHncw_iCrFak8XqMWW)" d="M20.23,8.91A3.59,3.59,0,0,0,18.88,11a4.69,4.69,0,0,0,0,1.15,7.54,7.54,0,0,0,.38,1.74h0a6.22,6.22,0,0,1-.12-1.95,3.9,3.9,0,0,1,.2-.87,5.53,5.53,0,0,1,.38-.86,3.3,3.3,0,0,1,1.52-1.48,1.42,1.42,0,0,1,1.25.21l.54.35a1.88,1.88,0,0,0,1.3.21A8.3,8.3,0,0,0,25.51,9l.23-.1c.76-.37,1.35-.21,2,.8l.13.19a4.62,4.62,0,0,1,.65,1.63,6.19,6.19,0,0,1,.11.83h0c.18.07.23.17.17.37a6.83,6.83,0,0,0,0-1,4.68,4.68,0,0,0-.14-.88,4.76,4.76,0,0,0-1.6-2.44,1.4,1.4,0,0,0-2.05-.08l-.17.14a1.36,1.36,0,0,1-1.77,0A2.08,2.08,0,0,0,22,8a1.29,1.29,0,0,0-.47.08A3.5,3.5,0,0,0,20.23,8.91Z"/><path fill="url(#dYTVBHncw_iCrFak8XqMWX)" d="M20.09,9.06a3.53,3.53,0,0,0-1.2,2,4.75,4.75,0,0,0,0,1.12,7.64,7.64,0,0,0,.37,1.7h0a6.09,6.09,0,0,1-.12-1.93,4,4,0,0,1,.19-.86,5.33,5.33,0,0,1,.37-.85,3.43,3.43,0,0,1,1.49-1.48,1.34,1.34,0,0,1,1.25.17l.54.35a1.84,1.84,0,0,0,1.28.26A5.54,5.54,0,0,0,25.43,9l.23-.11c.78-.42,1.36-.28,2.07.68l.13.18a4.57,4.57,0,0,1,.69,1.61,6,6,0,0,1,.13.82l0,0a.57.57,0,0,1,.15.62,6.5,6.5,0,0,0,0-1,4.85,4.85,0,0,0-.12-.88,4.78,4.78,0,0,0-1.52-2.47,1.42,1.42,0,0,0-2.12-.11l-.17.15a1.38,1.38,0,0,1-1.84,0,1.91,1.91,0,0,0-1.23-.53,1.37,1.37,0,0,0-.49.11A3.65,3.65,0,0,0,20.09,9.06Z"/><path fill="url(#dYTVBHncw_iCrFak8XqMWY)" d="M19.95,9.22a3.48,3.48,0,0,0-1.06,1.88,4.82,4.82,0,0,0,0,1.09,7.76,7.76,0,0,0,.35,1.65h0a6,6,0,0,1-.11-1.91,4.18,4.18,0,0,1,.18-.85,5.13,5.13,0,0,1,.36-.85,3.57,3.57,0,0,1,1.47-1.49,1.27,1.27,0,0,1,1.24.13c.17.1.34.22.53.35a1.81,1.81,0,0,0,1.27.31,4.14,4.14,0,0,0,1.18-.46L25.57,9c.79-.47,1.37-.36,2.09.57l.13.18a4.52,4.52,0,0,1,.72,1.58,5.73,5.73,0,0,1,.14.81v0a1.1,1.1,0,0,1,.12.86,6.11,6.11,0,0,0,.05-1,5.06,5.06,0,0,0-.11-.88,4.78,4.78,0,0,0-1.44-2.51c-1.06-1-1.79-.49-2.19-.14l-.18.15a1.41,1.41,0,0,1-1.9,0,1.79,1.79,0,0,0-1.27-.54,1.45,1.45,0,0,0-.51.14A3.75,3.75,0,0,0,19.95,9.22Z"/><path fill="url(#dYTVBHncw_iCrFak8XqMWZ)" d="M19.81,9.38a3.45,3.45,0,0,0-.91,1.8,4.92,4.92,0,0,0,0,1.06,7.92,7.92,0,0,0,.33,1.61h0a5.94,5.94,0,0,1-.1-1.89,4.37,4.37,0,0,1,.18-.84,5,5,0,0,1,.35-.84,3.71,3.71,0,0,1,1.44-1.5,1.2,1.2,0,0,1,1.23.09,5.36,5.36,0,0,1,.52.36,1.79,1.79,0,0,0,1.25.36,3.3,3.3,0,0,0,1.18-.44L25.49,9c.8-.52,1.38-.43,2.11.45l.13.17a4.49,4.49,0,0,1,.76,1.55,5.52,5.52,0,0,1,.16.8v0a1.87,1.87,0,0,1,.1,1.11,5.66,5.66,0,0,0,.06-1,5.32,5.32,0,0,0-.09-.87,4.76,4.76,0,0,0-1.36-2.55c-1.09-1-1.85-.53-2.25-.17L25,8.74a1.43,1.43,0,0,1-2,0,1.7,1.7,0,0,0-1.32-.55,1.53,1.53,0,0,0-.53.17A3.8,3.8,0,0,0,19.81,9.38Z"/><path fill="url(#dYTVBHncw_iCrFak8XqMWaa)" d="M19.67,9.54a3.44,3.44,0,0,0-.76,1.71,5.06,5.06,0,0,0,0,1,8.13,8.13,0,0,0,.32,1.57h0A5.87,5.87,0,0,1,19.14,12a4.63,4.63,0,0,1,.17-.83,4.82,4.82,0,0,1,.34-.84A3.86,3.86,0,0,1,21.06,8.8a1.14,1.14,0,0,1,1.22,0,3.87,3.87,0,0,1,.51.36A1.76,1.76,0,0,0,24,9.63a2.73,2.73,0,0,0,1.17-.43l.22-.14c.81-.58,1.39-.5,2.13.34l.14.16a4.47,4.47,0,0,1,.8,1.52,5.31,5.31,0,0,1,.18.79v0a2.93,2.93,0,0,1,.08,1.36,5.18,5.18,0,0,0,.08-.95,5.65,5.65,0,0,0-.07-.87,4.72,4.72,0,0,0-1.28-2.59c-1.12-1.12-1.91-.57-2.32-.2L25,8.83a1.46,1.46,0,0,1-2-.05,1.64,1.64,0,0,0-1.36-.56,1.61,1.61,0,0,0-.55.2A3.81,3.81,0,0,0,19.67,9.54Z"/><path fill="url(#dYTVBHncw_iCrFak8XqMWab)" d="M19.53,9.7a3.45,3.45,0,0,0-.61,1.62,5.27,5.27,0,0,0,0,1,8.39,8.39,0,0,0,.3,1.53h0A5.81,5.81,0,0,1,19.14,12a4.87,4.87,0,0,1,.17-.82,4.68,4.68,0,0,1,.33-.83A4,4,0,0,1,21,8.83a1.08,1.08,0,0,1,1.22,0,3,3,0,0,1,.5.36A1.82,1.82,0,0,0,24,9.67a2.21,2.21,0,0,0,1.16-.41l.22-.15a1.36,1.36,0,0,1,2.15.22l.14.16a4.43,4.43,0,0,1,.84,1.5,5.05,5.05,0,0,1,.19.78v0a4.31,4.31,0,0,1,.05,1.61,4.69,4.69,0,0,0,.09-.94,6.06,6.06,0,0,0-.05-.86A4.66,4.66,0,0,0,27.56,9c-1.15-1.19-2-.6-2.39-.24l-.2.17a1.49,1.49,0,0,1-2.08-.08,1.58,1.58,0,0,0-1.41-.56,1.69,1.69,0,0,0-.56.23A3.78,3.78,0,0,0,19.53,9.7Z"/><path fill="#603813" d="M19.23,13.85A5.74,5.74,0,0,1,19.15,12a4.78,4.78,0,0,1,.49-1.64A4.14,4.14,0,0,1,21,8.85c.42-.34,1-.29,1.7.34a1.8,1.8,0,0,0,2.56,0,1.36,1.36,0,0,1,2.17.11,4.42,4.42,0,0,1,1,1.62,5.62,5.62,0,0,1,.25,2.67,5.53,5.53,0,0,0,.07-1.79,4.59,4.59,0,0,0-1.11-2.66A1.62,1.62,0,0,0,25,9a1.52,1.52,0,0,1-2.14-.11,1.45,1.45,0,0,0-2-.32,3.72,3.72,0,0,0-1.41,1.27,3.48,3.48,0,0,0-.46,1.54A7.17,7.17,0,0,0,19.23,13.85Z"/><ellipse cx="26.26" cy="12.06" fill="url(#dYTVBHncw_iCrFak8XqMWj)" rx="1.37" ry="1.14"/><path fill="#805b2a" d="M27.38,12.35c.07,0,0,.15,0,.22a1.53,1.53,0,0,1-2.4.24c-.1-.08-.17-.18-.09-.24s.36.32,1.25.32S27.25,12.3,27.38,12.35Z"/><ellipse cx="21.59" cy="12.06" fill="url(#dYTVBHncw_iCrFak8XqMWac)" rx="1.37" ry="1.14"/><path fill="#805b2a" d="M20.48,12.35c-.07,0,0,.15,0,.22a1.53,1.53,0,0,0,2.4.24c.1-.08.17-.18.09-.24s-.36.32-1.25.32S20.6,12.3,20.48,12.35Z"/><path fill="#805b2a" d="M20.62,11.11a4,4,0,0,1,.43-.14l.43-.1a8.51,8.51,0,0,1,.88-.13h0a.32.32,0,0,1,.06.65h-.06a8,8,0,0,0-.82,0l-.41,0-.4,0h0a.16.16,0,0,1-.09-.3Z"/><path fill="#805b2a" d="M27.09,11.37l-.41,0h-.42q-.42,0-.83,0a.32.32,0,1,1-.06-.65h.06q.44,0,.87.12l.43.09.43.12a.16.16,0,0,1-.07.31Z"/><path fill="url(#dYTVBHncw_iCrFak8XqMWad)" d="M23.91,16.73c-1.24,0-1.29-.77-1.29-.77s0,1.54,1.29,1.54S25.2,16,25.2,16,25.15,16.73,23.91,16.73Z"/><path fill="url(#dYTVBHncw_iCrFak8XqMWae)" d="M25.2,15.84s0,1-1.27,1-1.27-1-1.27-1,.28.29,1.27.29S25.2,15.84,25.2,15.84Z"/><path fill="url(#dYTVBHncw_iCrFak8XqMWaf)" d="M22.85,15.84a.2.2,0,0,0-.09.38,2.61,2.61,0,0,0,1.17.25A2.23,2.23,0,0,0,25,16.22c.16-.07.18-.38,0-.38Z"/><path fill="url(#dYTVBHncw_iCrFak8XqMWag)" d="M10.39,40c-.3.85-1.52,1.16-2.73.68s-2-1.55-1.67-2.4,1.52-1.16,2.73-.68S10.68,39.14,10.39,40Z"/><path fill="url(#dYTVBHncw_iCrFak8XqMWah)" d="M37.56,40c.3.85,1.52,1.16,2.73.68s2-1.55,1.67-2.4-1.52-1.16-2.73-.68S37.26,39.14,37.56,40Z"/><path fill="url(#dYTVBHncw_iCrFak8XqMWaj)" d="M24,28.85a29.48,29.48,0,0,1-5.46-.52,1,1,0,0,1-.79-1.16,1,1,0,0,1,1.14-.8,26.53,26.53,0,0,0,10.08,0,1,1,0,0,1,1.15.79,1,1,0,0,1-.78,1.17A27.65,27.65,0,0,1,24,28.85Z" opacity=".14"/><path fill="url(#dYTVBHncw_iCrFak8XqMWak)" d="M24,28.71a29.55,29.55,0,0,1-5.46-.51.9.9,0,0,1-.71-1,.88.88,0,0,1,1-.72,26.78,26.78,0,0,0,10.14,0,.89.89,0,0,1,1,.71.9.9,0,0,1-.7,1.05A27.71,27.71,0,0,1,24,28.71Z" opacity=".29"/><path fill="url(#dYTVBHncw_iCrFak8XqMWal)" d="M24,28.56A29.62,29.62,0,0,1,18.53,28a.8.8,0,0,1-.63-.93.79.79,0,0,1,.92-.64,27,27,0,0,0,10.21,0,.79.79,0,0,1,.93.64.8.8,0,0,1-.63.94A27.77,27.77,0,0,1,24,28.56Z" opacity=".43"/><path fill="url(#dYTVBHncw_iCrFak8XqMWam)" d="M24,28.41a29.7,29.7,0,0,1-5.45-.51.7.7,0,0,1-.56-.82.69.69,0,0,1,.81-.56,27.15,27.15,0,0,0,10.27,0,.7.7,0,0,1,.26,1.38A27.83,27.83,0,0,1,24,28.41Z" opacity=".57"/><path fill="url(#dYTVBHncw_iCrFak8XqMWan)" d="M24,28.26a29.77,29.77,0,0,1-5.45-.51.61.61,0,0,1-.48-.71.6.6,0,0,1,.7-.49,27.33,27.33,0,0,0,10.34,0,.61.61,0,0,1,.23,1.19A27.88,27.88,0,0,1,24,28.26Z" opacity=".71"/><path fill="url(#dYTVBHncw_iCrFak8XqMWao)" d="M24,28.11a29.84,29.84,0,0,1-5.45-.51.51.51,0,0,1-.41-.59.5.5,0,0,1,.59-.41,27.35,27.35,0,0,0,10.4,0,.51.51,0,0,1,.19,1A27.94,27.94,0,0,1,24,28.11Z" opacity=".86"/><path fill="#ccc" d="M24,28a29.91,29.91,0,0,1-5.45-.51.41.41,0,0,1-.33-.48.41.41,0,0,1,.48-.33,28.06,28.06,0,0,0,10.47,0,.41.41,0,1,1,.16.81A28,28,0,0,1,24,28Z"/><path fill="url(#dYTVBHncw_iCrFak8XqMWap)" d="M9.72,34.74c0,1.55-2.95,2.56-3.8,2.88l-1-.6a3,3,0,0,1,1-1.57,4.06,4.06,0,0,1,2.39-.73A12.9,12.9,0,0,1,9.72,34.74Z"/><path fill="url(#dYTVBHncw_iCrFak8XqMWaq)" d="M8.17,33.83c-.55-.56-1.56-.42-2-.46s-1.49-1-1.69-.3a.61.61,0,0,0,.19.59.45.45,0,0,0-.44,0,1.34,1.34,0,0,0-.7,1.21A1.31,1.31,0,0,0,4.35,36l.08,0-.17.14c-.24.2-.56.22-.9.44a1.06,1.06,0,0,0-.56.71.6.6,0,0,0,.23.58.87.87,0,0,0,.51.11,5.9,5.9,0,0,0,3.87-1.22c.5-.33,1.59-.94,1.7-1.67A1,1,0,0,0,8.17,33.83Zm-3.52.62h0a.45.45,0,0,0,.18-.61l0,0a1.94,1.94,0,0,0,.48.28c.27.11.77.18.81.38-.28.19-.69.41-.89.52a1.25,1.25,0,0,1-.31.12.33.33,0,0,1-.19,0,.34.34,0,0,1-.24-.28A.42.42,0,0,1,4.65,34.44Z"/><path fill="url(#dYTVBHncw_iCrFak8XqMWar)" d="M7.46,35.61c-.38.45-2.34,2.4-4.56,1.47a1.27,1.27,0,0,1,.48-.45c.35-.22.66-.24.91-.44L4.45,36a5,5,0,0,1,1-.48c.46-.14.43-.33.68-1.1a1.58,1.58,0,0,1,1.47-.14C8.14,34.83,7.89,35.08,7.46,35.61Z"/><path fill="url(#dYTVBHncw_iCrFak8XqMWas)" d="M3.65,34.37l-.06-.06,0,0Z"/><path fill="url(#dYTVBHncw_iCrFak8XqMWat)" d="M6.1,34.5v0l-.17.11c-.17.56-.21.74-.61.87a5.38,5.38,0,0,0-1,.49L4.27,36l.07,0,.09,0,0,0a5.38,5.38,0,0,1,1-.49C5.87,35.41,5.87,35.22,6.1,34.5Z"/></svg>