<?xml version="1.0" encoding="UTF-8"?>
<svg xmlns="http://www.w3.org/2000/svg" xmlns:xlink="http://www.w3.org/1999/xlink" viewBox="0 0 64 64" width="64px" height="64px">
<g id="surface11199994">
<path style="fill-rule:nonzero;fill:rgb(100%,100%,100%);fill-opacity:1;stroke-width:10;stroke-linecap:butt;stroke-linejoin:round;stroke:rgb(0%,0%,0%);stroke-opacity:1;stroke-miterlimit:10;" d="M 16.124111 34.942833 L 83.122758 34.942833 L 80.734314 142.433946 L 16.124111 142.433946 C 13.169106 142.433946 10.747334 140.023284 10.747334 137.057169 L 10.747334 40.308501 C 10.747334 37.353495 13.169106 34.942833 16.124111 34.942833 Z M 161.252667 40.308501 L 161.252667 137.057169 C 161.252667 140.023284 158.830896 142.433946 155.87589 142.433946 L 88.688389 142.433946 L 88.688389 34.942833 L 155.87589 34.942833 C 158.830896 34.942833 161.252667 37.353495 161.252667 40.308501 Z M 145.122335 94.065167 L 104.807613 94.065167 L 104.807613 102.130333 L 145.122335 102.130333 Z M 131.6915 112.872779 L 104.807613 112.872779 L 104.807613 120.937945 L 131.6915 120.937945 Z M 137.057169 75.246446 L 104.807613 75.246446 L 104.807613 83.311612 L 137.057169 83.311612 Z M 145.122335 56.438833 L 104.807613 56.438833 L 104.807613 64.504 L 145.122335 64.504 Z M 145.122335 56.438833 " transform="matrix(0.351628,0,0,0.351628,1.76,1.76)"/>
<path style=" stroke:none;fill-rule:nonzero;fill:rgb(100%,100%,100%);fill-opacity:1;" d="M 7.429688 14.046875 L 30.988281 14.046875 L 30.148438 51.84375 L 7.429688 51.84375 C 6.390625 51.84375 5.539062 50.996094 5.539062 49.953125 L 5.539062 15.933594 C 5.539062 14.894531 6.390625 14.046875 7.429688 14.046875 Z M 58.460938 15.933594 L 58.460938 49.953125 C 58.460938 50.996094 57.609375 51.84375 56.570312 51.84375 L 32.945312 51.84375 L 32.945312 14.046875 L 56.570312 14.046875 C 57.609375 14.046875 58.460938 14.894531 58.460938 15.933594 Z M 52.789062 34.835938 L 38.613281 34.835938 L 38.613281 37.671875 L 52.789062 37.671875 Z M 48.066406 41.449219 L 38.613281 41.449219 L 38.613281 44.285156 L 48.066406 44.285156 Z M 49.953125 28.21875 L 38.613281 28.21875 L 38.613281 31.054688 L 49.953125 31.054688 Z M 52.789062 21.605469 L 38.613281 21.605469 L 38.613281 24.441406 L 52.789062 24.441406 Z M 52.789062 21.605469 "/>
</g>
</svg>
