<svg fill="#000000" xmlns="http://www.w3.org/2000/svg"  viewBox="0 0 64 64" width="64px" height="64px"><path d="M61.048,10.271L61,10.277V10.21l-1.779-0.198c-9.359-1.039-19.233,0.023-27.248,2.889	c-9.021-2.91-18.166-3.892-27.193-2.889L3,10.21V17v33.006V52v1c0,1.657,1.343,3,3,3h20.062c1.401,1.425,3.54,2.25,5.938,2.25	s4.537-0.825,5.938-2.25H59c1.657,0,3-1.343,3-3v-1V13L61.048,10.271z M57,13.818v32.195c-7.52,0.119-14.575,1.047-21.071,2.747	l-1.85-32.373C40.815,14.131,49.156,13.196,57,13.818z M7,13.817c7.634-0.612,15.358,0.273,23,2.64v32.748	c-7.773-2.409-16.374-3.101-23-3.194V13.817z"/></svg>