<svg fill="#000000" xmlns="http://www.w3.org/2000/svg"  viewBox="0 0 64 64" width="64px" height="64px"><path d="M 33 5 L 33 9 C 37.442186 9 41 12.557814 41 17 L 41 43 L 41 47 C 41 51.442186 37.442186 55 33 55 L 33 59 C 37.278493 59 40.874389 56.609787 43 53.21875 C 45.125611 56.609787 48.721507 59 53 59 L 53 55 C 48.557814 55 45 51.442186 45 47 L 62 47 L 62 17 L 45 17 C 45 12.557814 48.557814 9 53 9 L 53 5 C 48.721507 5 45.125611 7.3902134 43 10.78125 C 40.874389 7.3902134 37.278493 5 33 5 z M 2 17 L 2 47 L 36.029297 47 L 36.150391 43 L 6 43 L 6 21 L 36.818359 21 L 36.939453 17 L 2 17 z M 45 21 L 58 21 L 58 43 L 45 43 L 45 21 z M 10 25 L 10 39 L 36.273438 39 L 36.697266 25 L 10 25 z"/></svg>